<svg xmlns="http://www.w3.org/2000/svg" width="1536" height="1166" viewBox="0 0 1536 1166">
<title>U+F2BD0 · long stem with spine and stem and long stem</title>
<desc>Upper-left bowl-to-shaft shoulder; Lower-right bowl-to-shaft hip; Upper-right body return; Lower-left body return; Outgoing arch returns and shaft entries; Lower valley between spine return and first outgoing arch; Left upper extension: shaft-to-body transition; Left lower extension: shaft-to-body transition; Right upper extension: shaft-to-body transition; Right lower extension: shaft-to-body transition. Regular and Bold compiled outlines, with 24 and 48 pixel contexts.</desc>
<rect width="1536" height="1166" fill="#faf9f6"/>
<text x="30" y="40" font-family="Segoe UI, sans-serif" font-size="23" fill="#242c27" >U+F2BD0 · long stem with spine and stem and long stem</text>
<text x="30" y="70" font-family="Segoe UI, sans-serif" font-size="17" fill="#667165" >Shared-spine revision 2 · Compiled Roman outlines · 680px em</text>
<text x="30" y="95" font-family="Segoe UI, sans-serif" font-size="14" fill="#667165" >Font SHA-256 8a44968388f0dda08eca132845136ecec09e3184554072438a42ab144f70c521</text>
<text x="30" y="117" font-family="Segoe UI, sans-serif" font-size="14" fill="#667165" >Exported 2026-09-06T05:14:25+00:00 · right-arched-opposed-bowls-3-3 · uF2B91</text>
<text x="30" y="147" font-family="Segoe UI, sans-serif" font-size="17" fill="#667165" >Inspect: Upper-left bowl-to-shaft shoulder; Lower-right bowl-to-shaft hip; Upper-right body return; Lower-left body return; Outgoing arch returns and shaft entries; Lower</text>
<text x="30" y="170" font-family="Segoe UI, sans-serif" font-size="17" fill="#667165" >valley between spine return and first outgoing arch; Left upper extension: shaft-to-body transition; Left lower extension: shaft-to-body transition; Right upper extension:</text>
<text x="30" y="193" font-family="Segoe UI, sans-serif" font-size="17" fill="#667165" >shaft-to-body transition; Right lower extension: shaft-to-body transition</text>
<path d="M30 226H1506" stroke="#d8dacf"/>
<text x="40" y="257" font-family="Segoe UI, sans-serif" font-size="20" fill="#242c27" >Regular · 400</text>
<text x="210" y="257" font-family="Segoe UI, sans-serif" font-size="16" fill="#667165" >1 connected body · 2 enclosed spaces</text>
<path fill="#242c27" transform="translate(122.14 766.08) scale(0.68 -0.68)" d="M80 550V592Q80 626 72.5 635.5Q65 645 36 645Q24 645 16.0 644.0Q8 643 8 643V671L137 706H163V550V400H166Q190 432 225.5 458.5Q261 485 307 485Q365 485 395.5 453.0Q426 421 426 373V109H388Q364 85 342 64Q320 43 299.0 26.5Q278 10 254.0 1.5Q230 -7 199 -7Q190 -7 182.0 -1.0Q174 5 167 18H163V-113Q163 -145 171.0 -162.0Q179 -179 200.0 -185.0Q221 -191 260 -191V-220H7V-192Q54 -192 67.0 -176.5Q80 -161 80 -119V18ZM163 233Q177 240 195.0 247.5Q213 255 232.5 264.0Q252 273 271.0 282.0Q290 291 305.0 302.0Q320 313 329.0 324.5Q338 336 338 349Q338 387 318.0 408.5Q298 430 266 430Q255 430 244.0 425.5Q233 421 221.5 413.0Q210 405 199.5 396.0Q189 387 180.0 377.5Q171 368 163 360ZM343 245Q330 238 311.5 230.5Q293 223 273.5 214.0Q254 205 235.0 196.0Q216 187 201.0 176.0Q186 165 177.0 153.5Q168 142 168 129Q168 91 188.0 69.5Q208 48 240 48Q258 48 277.0 55.5Q296 63 313.0 76.0Q330 89 343 104ZM426 250V203Q426 162 432.0 127.5Q438 93 458.0 72.5Q478 52 518 52Q547 52 576.0 66.0Q605 80 642 114V300Q642 325 642.0 350.0Q642 375 642 400V603Q642 634 630.5 640.0Q619 646 600 646Q587 646 577.5 645.0Q568 644 568 644V671L700 706H725V400Q725 375 725.0 350.0Q725 325 725 300V0Q725 -8 725.0 -16.5Q725 -25 725.0 -33.5Q725 -42 725 -50V-113Q725 -145 733.0 -162.0Q741 -179 762.0 -185.0Q783 -191 822 -191V-220H569V-192Q616 -192 629.0 -176.5Q642 -161 642 -119V-50Q642 -42 642.0 -33.5Q642 -25 642.0 -16.5Q642 -8 642 0V70H639Q592 26 554.5 7.0Q517 -12 477 -12Q434 -12 407.5 5.0Q381 22 367.0 49.5Q353 77 348.0 109.5Q343 142 343 173V250Z"/>
<path d="M40 956.68H738" stroke="#d8dacf"/>
<text x="40" y="992.624" font-family="Segoe UI, sans-serif" font-size="16" fill="#667165" >24px</text>
<path fill="#242c27" transform="translate(114 992.624) scale(0.024 -0.024)" d="M80 550V592Q80 626 72.5 635.5Q65 645 36 645Q24 645 16.0 644.0Q8 643 8 643V671L137 706H163V550V400H166Q190 432 225.5 458.5Q261 485 307 485Q365 485 395.5 453.0Q426 421 426 373V109H388Q364 85 342 64Q320 43 299.0 26.5Q278 10 254.0 1.5Q230 -7 199 -7Q190 -7 182.0 -1.0Q174 5 167 18H163V-113Q163 -145 171.0 -162.0Q179 -179 200.0 -185.0Q221 -191 260 -191V-220H7V-192Q54 -192 67.0 -176.5Q80 -161 80 -119V18ZM163 233Q177 240 195.0 247.5Q213 255 232.5 264.0Q252 273 271.0 282.0Q290 291 305.0 302.0Q320 313 329.0 324.5Q338 336 338 349Q338 387 318.0 408.5Q298 430 266 430Q255 430 244.0 425.5Q233 421 221.5 413.0Q210 405 199.5 396.0Q189 387 180.0 377.5Q171 368 163 360ZM343 245Q330 238 311.5 230.5Q293 223 273.5 214.0Q254 205 235.0 196.0Q216 187 201.0 176.0Q186 165 177.0 153.5Q168 142 168 129Q168 91 188.0 69.5Q208 48 240 48Q258 48 277.0 55.5Q296 63 313.0 76.0Q330 89 343 104ZM426 250V203Q426 162 432.0 127.5Q438 93 458.0 72.5Q478 52 518 52Q547 52 576.0 66.0Q605 80 642 114V300Q642 325 642.0 350.0Q642 375 642 400V603Q642 634 630.5 640.0Q619 646 600 646Q587 646 577.5 645.0Q568 644 568 644V671L700 706H725V400Q725 375 725.0 350.0Q725 325 725 300V0Q725 -8 725.0 -16.5Q725 -25 725.0 -33.5Q725 -42 725 -50V-113Q725 -145 733.0 -162.0Q741 -179 762.0 -185.0Q783 -191 822 -191V-220H569V-192Q616 -192 629.0 -176.5Q642 -161 642 -119V-50Q642 -42 642.0 -33.5Q642 -25 642.0 -16.5Q642 -8 642 0V70H639Q592 26 554.5 7.0Q517 -12 477 -12Q434 -12 407.5 5.0Q381 22 367.0 49.5Q353 77 348.0 109.5Q343 142 343 173V250Z"/>
<path fill="#242c27" transform="translate(133.728 992.624) scale(0.024 -0.024)" d="M80 550V592Q80 626 72.5 635.5Q65 645 36 645Q24 645 16.0 644.0Q8 643 8 643V671L137 706H163V550V400H166Q190 432 225.5 458.5Q261 485 307 485Q365 485 395.5 453.0Q426 421 426 373V109H388Q364 85 342 64Q320 43 299.0 26.5Q278 10 254.0 1.5Q230 -7 199 -7Q190 -7 182.0 -1.0Q174 5 167 18H163V-113Q163 -145 171.0 -162.0Q179 -179 200.0 -185.0Q221 -191 260 -191V-220H7V-192Q54 -192 67.0 -176.5Q80 -161 80 -119V18ZM163 233Q177 240 195.0 247.5Q213 255 232.5 264.0Q252 273 271.0 282.0Q290 291 305.0 302.0Q320 313 329.0 324.5Q338 336 338 349Q338 387 318.0 408.5Q298 430 266 430Q255 430 244.0 425.5Q233 421 221.5 413.0Q210 405 199.5 396.0Q189 387 180.0 377.5Q171 368 163 360ZM343 245Q330 238 311.5 230.5Q293 223 273.5 214.0Q254 205 235.0 196.0Q216 187 201.0 176.0Q186 165 177.0 153.5Q168 142 168 129Q168 91 188.0 69.5Q208 48 240 48Q258 48 277.0 55.5Q296 63 313.0 76.0Q330 89 343 104ZM426 250V203Q426 162 432.0 127.5Q438 93 458.0 72.5Q478 52 518 52Q547 52 576.0 66.0Q605 80 642 114V300Q642 325 642.0 350.0Q642 375 642 400V603Q642 634 630.5 640.0Q619 646 600 646Q587 646 577.5 645.0Q568 644 568 644V671L700 706H725V400Q725 375 725.0 350.0Q725 325 725 300V0Q725 -8 725.0 -16.5Q725 -25 725.0 -33.5Q725 -42 725 -50V-113Q725 -145 733.0 -162.0Q741 -179 762.0 -185.0Q783 -191 822 -191V-220H569V-192Q616 -192 629.0 -176.5Q642 -161 642 -119V-50Q642 -42 642.0 -33.5Q642 -25 642.0 -16.5Q642 -8 642 0V70H639Q592 26 554.5 7.0Q517 -12 477 -12Q434 -12 407.5 5.0Q381 22 367.0 49.5Q353 77 348.0 109.5Q343 142 343 173V250Z"/>
<path fill="#242c27" transform="translate(153.456 992.624) scale(0.024 -0.024)" d="M80 550V592Q80 626 72.5 635.5Q65 645 36 645Q24 645 16.0 644.0Q8 643 8 643V671L137 706H163V550V400H166Q190 432 225.5 458.5Q261 485 307 485Q365 485 395.5 453.0Q426 421 426 373V109H388Q364 85 342 64Q320 43 299.0 26.5Q278 10 254.0 1.5Q230 -7 199 -7Q190 -7 182.0 -1.0Q174 5 167 18H163V-113Q163 -145 171.0 -162.0Q179 -179 200.0 -185.0Q221 -191 260 -191V-220H7V-192Q54 -192 67.0 -176.5Q80 -161 80 -119V18ZM163 233Q177 240 195.0 247.5Q213 255 232.5 264.0Q252 273 271.0 282.0Q290 291 305.0 302.0Q320 313 329.0 324.5Q338 336 338 349Q338 387 318.0 408.5Q298 430 266 430Q255 430 244.0 425.5Q233 421 221.5 413.0Q210 405 199.5 396.0Q189 387 180.0 377.5Q171 368 163 360ZM343 245Q330 238 311.5 230.5Q293 223 273.5 214.0Q254 205 235.0 196.0Q216 187 201.0 176.0Q186 165 177.0 153.5Q168 142 168 129Q168 91 188.0 69.5Q208 48 240 48Q258 48 277.0 55.5Q296 63 313.0 76.0Q330 89 343 104ZM426 250V203Q426 162 432.0 127.5Q438 93 458.0 72.5Q478 52 518 52Q547 52 576.0 66.0Q605 80 642 114V300Q642 325 642.0 350.0Q642 375 642 400V603Q642 634 630.5 640.0Q619 646 600 646Q587 646 577.5 645.0Q568 644 568 644V671L700 706H725V400Q725 375 725.0 350.0Q725 325 725 300V0Q725 -8 725.0 -16.5Q725 -25 725.0 -33.5Q725 -42 725 -50V-113Q725 -145 733.0 -162.0Q741 -179 762.0 -185.0Q783 -191 822 -191V-220H569V-192Q616 -192 629.0 -176.5Q642 -161 642 -119V-50Q642 -42 642.0 -33.5Q642 -25 642.0 -16.5Q642 -8 642 0V70H639Q592 26 554.5 7.0Q517 -12 477 -12Q434 -12 407.5 5.0Q381 22 367.0 49.5Q353 77 348.0 109.5Q343 142 343 173V250Z"/>
<path fill="#242c27" transform="translate(173.184 992.624) scale(0.024 -0.024)" d="M80 550V592Q80 626 72.5 635.5Q65 645 36 645Q24 645 16.0 644.0Q8 643 8 643V671L137 706H163V550V400H166Q190 432 225.5 458.5Q261 485 307 485Q365 485 395.5 453.0Q426 421 426 373V109H388Q364 85 342 64Q320 43 299.0 26.5Q278 10 254.0 1.5Q230 -7 199 -7Q190 -7 182.0 -1.0Q174 5 167 18H163V-113Q163 -145 171.0 -162.0Q179 -179 200.0 -185.0Q221 -191 260 -191V-220H7V-192Q54 -192 67.0 -176.5Q80 -161 80 -119V18ZM163 233Q177 240 195.0 247.5Q213 255 232.5 264.0Q252 273 271.0 282.0Q290 291 305.0 302.0Q320 313 329.0 324.5Q338 336 338 349Q338 387 318.0 408.5Q298 430 266 430Q255 430 244.0 425.5Q233 421 221.5 413.0Q210 405 199.5 396.0Q189 387 180.0 377.5Q171 368 163 360ZM343 245Q330 238 311.5 230.5Q293 223 273.5 214.0Q254 205 235.0 196.0Q216 187 201.0 176.0Q186 165 177.0 153.5Q168 142 168 129Q168 91 188.0 69.5Q208 48 240 48Q258 48 277.0 55.5Q296 63 313.0 76.0Q330 89 343 104ZM426 250V203Q426 162 432.0 127.5Q438 93 458.0 72.5Q478 52 518 52Q547 52 576.0 66.0Q605 80 642 114V300Q642 325 642.0 350.0Q642 375 642 400V603Q642 634 630.5 640.0Q619 646 600 646Q587 646 577.5 645.0Q568 644 568 644V671L700 706H725V400Q725 375 725.0 350.0Q725 325 725 300V0Q725 -8 725.0 -16.5Q725 -25 725.0 -33.5Q725 -42 725 -50V-113Q725 -145 733.0 -162.0Q741 -179 762.0 -185.0Q783 -191 822 -191V-220H569V-192Q616 -192 629.0 -176.5Q642 -161 642 -119V-50Q642 -42 642.0 -33.5Q642 -25 642.0 -16.5Q642 -8 642 0V70H639Q592 26 554.5 7.0Q517 -12 477 -12Q434 -12 407.5 5.0Q381 22 367.0 49.5Q353 77 348.0 109.5Q343 142 343 173V250Z"/>
<path fill="#242c27" transform="translate(192.912 992.624) scale(0.024 -0.024)" d="M80 550V592Q80 626 72.5 635.5Q65 645 36 645Q24 645 16.0 644.0Q8 643 8 643V671L137 706H163V550V400H166Q190 432 225.5 458.5Q261 485 307 485Q365 485 395.5 453.0Q426 421 426 373V109H388Q364 85 342 64Q320 43 299.0 26.5Q278 10 254.0 1.5Q230 -7 199 -7Q190 -7 182.0 -1.0Q174 5 167 18H163V-113Q163 -145 171.0 -162.0Q179 -179 200.0 -185.0Q221 -191 260 -191V-220H7V-192Q54 -192 67.0 -176.5Q80 -161 80 -119V18ZM163 233Q177 240 195.0 247.5Q213 255 232.5 264.0Q252 273 271.0 282.0Q290 291 305.0 302.0Q320 313 329.0 324.5Q338 336 338 349Q338 387 318.0 408.5Q298 430 266 430Q255 430 244.0 425.5Q233 421 221.5 413.0Q210 405 199.5 396.0Q189 387 180.0 377.5Q171 368 163 360ZM343 245Q330 238 311.5 230.5Q293 223 273.5 214.0Q254 205 235.0 196.0Q216 187 201.0 176.0Q186 165 177.0 153.5Q168 142 168 129Q168 91 188.0 69.5Q208 48 240 48Q258 48 277.0 55.5Q296 63 313.0 76.0Q330 89 343 104ZM426 250V203Q426 162 432.0 127.5Q438 93 458.0 72.5Q478 52 518 52Q547 52 576.0 66.0Q605 80 642 114V300Q642 325 642.0 350.0Q642 375 642 400V603Q642 634 630.5 640.0Q619 646 600 646Q587 646 577.5 645.0Q568 644 568 644V671L700 706H725V400Q725 375 725.0 350.0Q725 325 725 300V0Q725 -8 725.0 -16.5Q725 -25 725.0 -33.5Q725 -42 725 -50V-113Q725 -145 733.0 -162.0Q741 -179 762.0 -185.0Q783 -191 822 -191V-220H569V-192Q616 -192 629.0 -176.5Q642 -161 642 -119V-50Q642 -42 642.0 -33.5Q642 -25 642.0 -16.5Q642 -8 642 0V70H639Q592 26 554.5 7.0Q517 -12 477 -12Q434 -12 407.5 5.0Q381 22 367.0 49.5Q353 77 348.0 109.5Q343 142 343 173V250Z"/>
<text x="40" y="1078.57" font-family="Segoe UI, sans-serif" font-size="16" fill="#667165" >48px</text>
<path fill="#242c27" transform="translate(114 1078.57) scale(0.048 -0.048)" d="M80 550V592Q80 626 72.5 635.5Q65 645 36 645Q24 645 16.0 644.0Q8 643 8 643V671L137 706H163V550V400H166Q190 432 225.5 458.5Q261 485 307 485Q365 485 395.5 453.0Q426 421 426 373V109H388Q364 85 342 64Q320 43 299.0 26.5Q278 10 254.0 1.5Q230 -7 199 -7Q190 -7 182.0 -1.0Q174 5 167 18H163V-113Q163 -145 171.0 -162.0Q179 -179 200.0 -185.0Q221 -191 260 -191V-220H7V-192Q54 -192 67.0 -176.5Q80 -161 80 -119V18ZM163 233Q177 240 195.0 247.5Q213 255 232.5 264.0Q252 273 271.0 282.0Q290 291 305.0 302.0Q320 313 329.0 324.5Q338 336 338 349Q338 387 318.0 408.5Q298 430 266 430Q255 430 244.0 425.5Q233 421 221.5 413.0Q210 405 199.5 396.0Q189 387 180.0 377.5Q171 368 163 360ZM343 245Q330 238 311.5 230.5Q293 223 273.5 214.0Q254 205 235.0 196.0Q216 187 201.0 176.0Q186 165 177.0 153.5Q168 142 168 129Q168 91 188.0 69.5Q208 48 240 48Q258 48 277.0 55.5Q296 63 313.0 76.0Q330 89 343 104ZM426 250V203Q426 162 432.0 127.5Q438 93 458.0 72.5Q478 52 518 52Q547 52 576.0 66.0Q605 80 642 114V300Q642 325 642.0 350.0Q642 375 642 400V603Q642 634 630.5 640.0Q619 646 600 646Q587 646 577.5 645.0Q568 644 568 644V671L700 706H725V400Q725 375 725.0 350.0Q725 325 725 300V0Q725 -8 725.0 -16.5Q725 -25 725.0 -33.5Q725 -42 725 -50V-113Q725 -145 733.0 -162.0Q741 -179 762.0 -185.0Q783 -191 822 -191V-220H569V-192Q616 -192 629.0 -176.5Q642 -161 642 -119V-50Q642 -42 642.0 -33.5Q642 -25 642.0 -16.5Q642 -8 642 0V70H639Q592 26 554.5 7.0Q517 -12 477 -12Q434 -12 407.5 5.0Q381 22 367.0 49.5Q353 77 348.0 109.5Q343 142 343 173V250Z"/>
<path fill="#242c27" transform="translate(153.456 1078.57) scale(0.048 -0.048)" d="M80 550V592Q80 626 72.5 635.5Q65 645 36 645Q24 645 16.0 644.0Q8 643 8 643V671L137 706H163V550V400H166Q190 432 225.5 458.5Q261 485 307 485Q365 485 395.5 453.0Q426 421 426 373V109H388Q364 85 342 64Q320 43 299.0 26.5Q278 10 254.0 1.5Q230 -7 199 -7Q190 -7 182.0 -1.0Q174 5 167 18H163V-113Q163 -145 171.0 -162.0Q179 -179 200.0 -185.0Q221 -191 260 -191V-220H7V-192Q54 -192 67.0 -176.5Q80 -161 80 -119V18ZM163 233Q177 240 195.0 247.5Q213 255 232.5 264.0Q252 273 271.0 282.0Q290 291 305.0 302.0Q320 313 329.0 324.5Q338 336 338 349Q338 387 318.0 408.5Q298 430 266 430Q255 430 244.0 425.5Q233 421 221.5 413.0Q210 405 199.5 396.0Q189 387 180.0 377.5Q171 368 163 360ZM343 245Q330 238 311.5 230.5Q293 223 273.5 214.0Q254 205 235.0 196.0Q216 187 201.0 176.0Q186 165 177.0 153.5Q168 142 168 129Q168 91 188.0 69.5Q208 48 240 48Q258 48 277.0 55.5Q296 63 313.0 76.0Q330 89 343 104ZM426 250V203Q426 162 432.0 127.5Q438 93 458.0 72.5Q478 52 518 52Q547 52 576.0 66.0Q605 80 642 114V300Q642 325 642.0 350.0Q642 375 642 400V603Q642 634 630.5 640.0Q619 646 600 646Q587 646 577.5 645.0Q568 644 568 644V671L700 706H725V400Q725 375 725.0 350.0Q725 325 725 300V0Q725 -8 725.0 -16.5Q725 -25 725.0 -33.5Q725 -42 725 -50V-113Q725 -145 733.0 -162.0Q741 -179 762.0 -185.0Q783 -191 822 -191V-220H569V-192Q616 -192 629.0 -176.5Q642 -161 642 -119V-50Q642 -42 642.0 -33.5Q642 -25 642.0 -16.5Q642 -8 642 0V70H639Q592 26 554.5 7.0Q517 -12 477 -12Q434 -12 407.5 5.0Q381 22 367.0 49.5Q353 77 348.0 109.5Q343 142 343 173V250Z"/>
<path fill="#242c27" transform="translate(192.912 1078.57) scale(0.048 -0.048)" d="M80 550V592Q80 626 72.5 635.5Q65 645 36 645Q24 645 16.0 644.0Q8 643 8 643V671L137 706H163V550V400H166Q190 432 225.5 458.5Q261 485 307 485Q365 485 395.5 453.0Q426 421 426 373V109H388Q364 85 342 64Q320 43 299.0 26.5Q278 10 254.0 1.5Q230 -7 199 -7Q190 -7 182.0 -1.0Q174 5 167 18H163V-113Q163 -145 171.0 -162.0Q179 -179 200.0 -185.0Q221 -191 260 -191V-220H7V-192Q54 -192 67.0 -176.5Q80 -161 80 -119V18ZM163 233Q177 240 195.0 247.5Q213 255 232.5 264.0Q252 273 271.0 282.0Q290 291 305.0 302.0Q320 313 329.0 324.5Q338 336 338 349Q338 387 318.0 408.5Q298 430 266 430Q255 430 244.0 425.5Q233 421 221.5 413.0Q210 405 199.5 396.0Q189 387 180.0 377.5Q171 368 163 360ZM343 245Q330 238 311.5 230.5Q293 223 273.5 214.0Q254 205 235.0 196.0Q216 187 201.0 176.0Q186 165 177.0 153.5Q168 142 168 129Q168 91 188.0 69.5Q208 48 240 48Q258 48 277.0 55.5Q296 63 313.0 76.0Q330 89 343 104ZM426 250V203Q426 162 432.0 127.5Q438 93 458.0 72.5Q478 52 518 52Q547 52 576.0 66.0Q605 80 642 114V300Q642 325 642.0 350.0Q642 375 642 400V603Q642 634 630.5 640.0Q619 646 600 646Q587 646 577.5 645.0Q568 644 568 644V671L700 706H725V400Q725 375 725.0 350.0Q725 325 725 300V0Q725 -8 725.0 -16.5Q725 -25 725.0 -33.5Q725 -42 725 -50V-113Q725 -145 733.0 -162.0Q741 -179 762.0 -185.0Q783 -191 822 -191V-220H569V-192Q616 -192 629.0 -176.5Q642 -161 642 -119V-50Q642 -42 642.0 -33.5Q642 -25 642.0 -16.5Q642 -8 642 0V70H639Q592 26 554.5 7.0Q517 -12 477 -12Q434 -12 407.5 5.0Q381 22 367.0 49.5Q353 77 348.0 109.5Q343 142 343 173V250Z"/>
<path fill="#242c27" transform="translate(232.368 1078.57) scale(0.048 -0.048)" d="M80 550V592Q80 626 72.5 635.5Q65 645 36 645Q24 645 16.0 644.0Q8 643 8 643V671L137 706H163V550V400H166Q190 432 225.5 458.5Q261 485 307 485Q365 485 395.5 453.0Q426 421 426 373V109H388Q364 85 342 64Q320 43 299.0 26.5Q278 10 254.0 1.5Q230 -7 199 -7Q190 -7 182.0 -1.0Q174 5 167 18H163V-113Q163 -145 171.0 -162.0Q179 -179 200.0 -185.0Q221 -191 260 -191V-220H7V-192Q54 -192 67.0 -176.5Q80 -161 80 -119V18ZM163 233Q177 240 195.0 247.5Q213 255 232.5 264.0Q252 273 271.0 282.0Q290 291 305.0 302.0Q320 313 329.0 324.5Q338 336 338 349Q338 387 318.0 408.5Q298 430 266 430Q255 430 244.0 425.5Q233 421 221.5 413.0Q210 405 199.5 396.0Q189 387 180.0 377.5Q171 368 163 360ZM343 245Q330 238 311.5 230.5Q293 223 273.5 214.0Q254 205 235.0 196.0Q216 187 201.0 176.0Q186 165 177.0 153.5Q168 142 168 129Q168 91 188.0 69.5Q208 48 240 48Q258 48 277.0 55.5Q296 63 313.0 76.0Q330 89 343 104ZM426 250V203Q426 162 432.0 127.5Q438 93 458.0 72.5Q478 52 518 52Q547 52 576.0 66.0Q605 80 642 114V300Q642 325 642.0 350.0Q642 375 642 400V603Q642 634 630.5 640.0Q619 646 600 646Q587 646 577.5 645.0Q568 644 568 644V671L700 706H725V400Q725 375 725.0 350.0Q725 325 725 300V0Q725 -8 725.0 -16.5Q725 -25 725.0 -33.5Q725 -42 725 -50V-113Q725 -145 733.0 -162.0Q741 -179 762.0 -185.0Q783 -191 822 -191V-220H569V-192Q616 -192 629.0 -176.5Q642 -161 642 -119V-50Q642 -42 642.0 -33.5Q642 -25 642.0 -16.5Q642 -8 642 0V70H639Q592 26 554.5 7.0Q517 -12 477 -12Q434 -12 407.5 5.0Q381 22 367.0 49.5Q353 77 348.0 109.5Q343 142 343 173V250Z"/>
<path fill="#242c27" transform="translate(271.824 1078.57) scale(0.048 -0.048)" d="M80 550V592Q80 626 72.5 635.5Q65 645 36 645Q24 645 16.0 644.0Q8 643 8 643V671L137 706H163V550V400H166Q190 432 225.5 458.5Q261 485 307 485Q365 485 395.5 453.0Q426 421 426 373V109H388Q364 85 342 64Q320 43 299.0 26.5Q278 10 254.0 1.5Q230 -7 199 -7Q190 -7 182.0 -1.0Q174 5 167 18H163V-113Q163 -145 171.0 -162.0Q179 -179 200.0 -185.0Q221 -191 260 -191V-220H7V-192Q54 -192 67.0 -176.5Q80 -161 80 -119V18ZM163 233Q177 240 195.0 247.5Q213 255 232.5 264.0Q252 273 271.0 282.0Q290 291 305.0 302.0Q320 313 329.0 324.5Q338 336 338 349Q338 387 318.0 408.5Q298 430 266 430Q255 430 244.0 425.5Q233 421 221.5 413.0Q210 405 199.5 396.0Q189 387 180.0 377.5Q171 368 163 360ZM343 245Q330 238 311.5 230.5Q293 223 273.5 214.0Q254 205 235.0 196.0Q216 187 201.0 176.0Q186 165 177.0 153.5Q168 142 168 129Q168 91 188.0 69.5Q208 48 240 48Q258 48 277.0 55.5Q296 63 313.0 76.0Q330 89 343 104ZM426 250V203Q426 162 432.0 127.5Q438 93 458.0 72.5Q478 52 518 52Q547 52 576.0 66.0Q605 80 642 114V300Q642 325 642.0 350.0Q642 375 642 400V603Q642 634 630.5 640.0Q619 646 600 646Q587 646 577.5 645.0Q568 644 568 644V671L700 706H725V400Q725 375 725.0 350.0Q725 325 725 300V0Q725 -8 725.0 -16.5Q725 -25 725.0 -33.5Q725 -42 725 -50V-113Q725 -145 733.0 -162.0Q741 -179 762.0 -185.0Q783 -191 822 -191V-220H569V-192Q616 -192 629.0 -176.5Q642 -161 642 -119V-50Q642 -42 642.0 -33.5Q642 -25 642.0 -16.5Q642 -8 642 0V70H639Q592 26 554.5 7.0Q517 -12 477 -12Q434 -12 407.5 5.0Q381 22 367.0 49.5Q353 77 348.0 109.5Q343 142 343 173V250Z"/>
<text x="768" y="257" font-family="Segoe UI, sans-serif" font-size="20" fill="#242c27" >Bold · 700</text>
<text x="938" y="257" font-family="Segoe UI, sans-serif" font-size="16" fill="#667165" >1 connected body · 2 enclosed spaces</text>
<path fill="#242c27" transform="translate(829.06 766.08) scale(0.68 -0.68)" d="M72 550V577Q72 611 64.5 620.5Q57 630 29 630Q16 630 8.0 629.0Q0 628 0 628V671L161 706H215V550V402H219Q242 432 273.5 459.0Q305 486 351 486Q406 486 441.5 459.5Q477 433 477 372V29H406Q339 70 332 59Q318 37 308.0 21.0Q298 5 285.5 -3.0Q273 -11 254 -11Q244 -11 235.0 -5.5Q226 0 218 15H215V-101Q215 -133 223.0 -150.0Q231 -167 252.0 -173.0Q273 -179 312 -179V-220H-1V-180Q46 -180 59.0 -165.0Q72 -150 72 -108V15ZM215 267Q226 270 239.0 274.0Q252 278 265.0 283.5Q278 289 290.5 295.5Q303 302 313.0 309.5Q323 317 328.5 325.5Q334 334 334 344Q334 381 322.5 398.0Q311 415 288 415Q280 415 272.0 410.0Q264 405 256.0 397.0Q248 389 240.5 379.5Q233 370 226.5 361.0Q220 352 215 344ZM334 208Q323 205 310.0 201.0Q297 197 284.0 191.5Q271 186 258.5 179.5Q246 173 236.0 165.5Q226 158 220.5 149.5Q215 141 215 131Q215 94 226.5 77.0Q238 60 261 60Q274 60 288.0 66.5Q302 73 314.0 84.0Q326 95 334 108ZM477 250V226Q477 188 481.0 155.5Q485 123 501.0 103.5Q517 84 554 84Q580 84 601.0 93.0Q622 102 652 127V300Q652 325 652.0 350.0Q652 375 652 400V595Q652 624 637.0 630.5Q622 637 603 637Q591 637 581.5 636.0Q572 635 572 635V675L729 706H795V400Q795 375 795.0 350.0Q795 325 795 300V0Q795 -8 795.0 -16.5Q795 -25 795.0 -33.5Q795 -42 795 -50V-101Q795 -133 803.0 -150.0Q811 -167 832.0 -173.0Q853 -179 892 -179V-220H579V-180Q626 -180 639.0 -165.0Q652 -150 652 -108V-50Q652 -42 652.0 -33.5Q652 -25 652.0 -16.5Q652 -8 652 0V72H648Q607 29 573.0 8.5Q539 -12 493 -12Q454 -12 424.5 0.0Q395 12 375.0 36.0Q355 60 344.5 95.5Q334 131 334 178V250Z"/>
<path d="M768 956.68H1466" stroke="#d8dacf"/>
<text x="768" y="992.624" font-family="Segoe UI, sans-serif" font-size="16" fill="#667165" >24px</text>
<path fill="#242c27" transform="translate(842.024 992.624) scale(0.024 -0.024)" d="M72 550V577Q72 611 64.5 620.5Q57 630 29 630Q16 630 8.0 629.0Q0 628 0 628V671L161 706H215V550V402H219Q242 432 273.5 459.0Q305 486 351 486Q406 486 441.5 459.5Q477 433 477 372V29H406Q339 70 332 59Q318 37 308.0 21.0Q298 5 285.5 -3.0Q273 -11 254 -11Q244 -11 235.0 -5.5Q226 0 218 15H215V-101Q215 -133 223.0 -150.0Q231 -167 252.0 -173.0Q273 -179 312 -179V-220H-1V-180Q46 -180 59.0 -165.0Q72 -150 72 -108V15ZM215 267Q226 270 239.0 274.0Q252 278 265.0 283.5Q278 289 290.5 295.5Q303 302 313.0 309.5Q323 317 328.5 325.5Q334 334 334 344Q334 381 322.5 398.0Q311 415 288 415Q280 415 272.0 410.0Q264 405 256.0 397.0Q248 389 240.5 379.5Q233 370 226.5 361.0Q220 352 215 344ZM334 208Q323 205 310.0 201.0Q297 197 284.0 191.5Q271 186 258.5 179.5Q246 173 236.0 165.5Q226 158 220.5 149.5Q215 141 215 131Q215 94 226.5 77.0Q238 60 261 60Q274 60 288.0 66.5Q302 73 314.0 84.0Q326 95 334 108ZM477 250V226Q477 188 481.0 155.5Q485 123 501.0 103.5Q517 84 554 84Q580 84 601.0 93.0Q622 102 652 127V300Q652 325 652.0 350.0Q652 375 652 400V595Q652 624 637.0 630.5Q622 637 603 637Q591 637 581.5 636.0Q572 635 572 635V675L729 706H795V400Q795 375 795.0 350.0Q795 325 795 300V0Q795 -8 795.0 -16.5Q795 -25 795.0 -33.5Q795 -42 795 -50V-101Q795 -133 803.0 -150.0Q811 -167 832.0 -173.0Q853 -179 892 -179V-220H579V-180Q626 -180 639.0 -165.0Q652 -150 652 -108V-50Q652 -42 652.0 -33.5Q652 -25 652.0 -16.5Q652 -8 652 0V72H648Q607 29 573.0 8.5Q539 -12 493 -12Q454 -12 424.5 0.0Q395 12 375.0 36.0Q355 60 344.5 95.5Q334 131 334 178V250Z"/>
<path fill="#242c27" transform="translate(863.192 992.624) scale(0.024 -0.024)" d="M72 550V577Q72 611 64.5 620.5Q57 630 29 630Q16 630 8.0 629.0Q0 628 0 628V671L161 706H215V550V402H219Q242 432 273.5 459.0Q305 486 351 486Q406 486 441.5 459.5Q477 433 477 372V29H406Q339 70 332 59Q318 37 308.0 21.0Q298 5 285.5 -3.0Q273 -11 254 -11Q244 -11 235.0 -5.5Q226 0 218 15H215V-101Q215 -133 223.0 -150.0Q231 -167 252.0 -173.0Q273 -179 312 -179V-220H-1V-180Q46 -180 59.0 -165.0Q72 -150 72 -108V15ZM215 267Q226 270 239.0 274.0Q252 278 265.0 283.5Q278 289 290.5 295.5Q303 302 313.0 309.5Q323 317 328.5 325.5Q334 334 334 344Q334 381 322.5 398.0Q311 415 288 415Q280 415 272.0 410.0Q264 405 256.0 397.0Q248 389 240.5 379.5Q233 370 226.5 361.0Q220 352 215 344ZM334 208Q323 205 310.0 201.0Q297 197 284.0 191.5Q271 186 258.5 179.5Q246 173 236.0 165.5Q226 158 220.5 149.5Q215 141 215 131Q215 94 226.5 77.0Q238 60 261 60Q274 60 288.0 66.5Q302 73 314.0 84.0Q326 95 334 108ZM477 250V226Q477 188 481.0 155.5Q485 123 501.0 103.5Q517 84 554 84Q580 84 601.0 93.0Q622 102 652 127V300Q652 325 652.0 350.0Q652 375 652 400V595Q652 624 637.0 630.5Q622 637 603 637Q591 637 581.5 636.0Q572 635 572 635V675L729 706H795V400Q795 375 795.0 350.0Q795 325 795 300V0Q795 -8 795.0 -16.5Q795 -25 795.0 -33.5Q795 -42 795 -50V-101Q795 -133 803.0 -150.0Q811 -167 832.0 -173.0Q853 -179 892 -179V-220H579V-180Q626 -180 639.0 -165.0Q652 -150 652 -108V-50Q652 -42 652.0 -33.5Q652 -25 652.0 -16.5Q652 -8 652 0V72H648Q607 29 573.0 8.5Q539 -12 493 -12Q454 -12 424.5 0.0Q395 12 375.0 36.0Q355 60 344.5 95.5Q334 131 334 178V250Z"/>
<path fill="#242c27" transform="translate(884.36 992.624) scale(0.024 -0.024)" d="M72 550V577Q72 611 64.5 620.5Q57 630 29 630Q16 630 8.0 629.0Q0 628 0 628V671L161 706H215V550V402H219Q242 432 273.5 459.0Q305 486 351 486Q406 486 441.5 459.5Q477 433 477 372V29H406Q339 70 332 59Q318 37 308.0 21.0Q298 5 285.5 -3.0Q273 -11 254 -11Q244 -11 235.0 -5.5Q226 0 218 15H215V-101Q215 -133 223.0 -150.0Q231 -167 252.0 -173.0Q273 -179 312 -179V-220H-1V-180Q46 -180 59.0 -165.0Q72 -150 72 -108V15ZM215 267Q226 270 239.0 274.0Q252 278 265.0 283.5Q278 289 290.5 295.5Q303 302 313.0 309.5Q323 317 328.5 325.5Q334 334 334 344Q334 381 322.5 398.0Q311 415 288 415Q280 415 272.0 410.0Q264 405 256.0 397.0Q248 389 240.5 379.5Q233 370 226.5 361.0Q220 352 215 344ZM334 208Q323 205 310.0 201.0Q297 197 284.0 191.5Q271 186 258.5 179.5Q246 173 236.0 165.5Q226 158 220.5 149.5Q215 141 215 131Q215 94 226.5 77.0Q238 60 261 60Q274 60 288.0 66.5Q302 73 314.0 84.0Q326 95 334 108ZM477 250V226Q477 188 481.0 155.5Q485 123 501.0 103.5Q517 84 554 84Q580 84 601.0 93.0Q622 102 652 127V300Q652 325 652.0 350.0Q652 375 652 400V595Q652 624 637.0 630.5Q622 637 603 637Q591 637 581.5 636.0Q572 635 572 635V675L729 706H795V400Q795 375 795.0 350.0Q795 325 795 300V0Q795 -8 795.0 -16.5Q795 -25 795.0 -33.5Q795 -42 795 -50V-101Q795 -133 803.0 -150.0Q811 -167 832.0 -173.0Q853 -179 892 -179V-220H579V-180Q626 -180 639.0 -165.0Q652 -150 652 -108V-50Q652 -42 652.0 -33.5Q652 -25 652.0 -16.5Q652 -8 652 0V72H648Q607 29 573.0 8.5Q539 -12 493 -12Q454 -12 424.5 0.0Q395 12 375.0 36.0Q355 60 344.5 95.5Q334 131 334 178V250Z"/>
<path fill="#242c27" transform="translate(905.528 992.624) scale(0.024 -0.024)" d="M72 550V577Q72 611 64.5 620.5Q57 630 29 630Q16 630 8.0 629.0Q0 628 0 628V671L161 706H215V550V402H219Q242 432 273.5 459.0Q305 486 351 486Q406 486 441.5 459.5Q477 433 477 372V29H406Q339 70 332 59Q318 37 308.0 21.0Q298 5 285.5 -3.0Q273 -11 254 -11Q244 -11 235.0 -5.5Q226 0 218 15H215V-101Q215 -133 223.0 -150.0Q231 -167 252.0 -173.0Q273 -179 312 -179V-220H-1V-180Q46 -180 59.0 -165.0Q72 -150 72 -108V15ZM215 267Q226 270 239.0 274.0Q252 278 265.0 283.5Q278 289 290.5 295.5Q303 302 313.0 309.5Q323 317 328.5 325.5Q334 334 334 344Q334 381 322.5 398.0Q311 415 288 415Q280 415 272.0 410.0Q264 405 256.0 397.0Q248 389 240.5 379.5Q233 370 226.5 361.0Q220 352 215 344ZM334 208Q323 205 310.0 201.0Q297 197 284.0 191.5Q271 186 258.5 179.5Q246 173 236.0 165.5Q226 158 220.5 149.5Q215 141 215 131Q215 94 226.5 77.0Q238 60 261 60Q274 60 288.0 66.5Q302 73 314.0 84.0Q326 95 334 108ZM477 250V226Q477 188 481.0 155.5Q485 123 501.0 103.5Q517 84 554 84Q580 84 601.0 93.0Q622 102 652 127V300Q652 325 652.0 350.0Q652 375 652 400V595Q652 624 637.0 630.5Q622 637 603 637Q591 637 581.5 636.0Q572 635 572 635V675L729 706H795V400Q795 375 795.0 350.0Q795 325 795 300V0Q795 -8 795.0 -16.5Q795 -25 795.0 -33.5Q795 -42 795 -50V-101Q795 -133 803.0 -150.0Q811 -167 832.0 -173.0Q853 -179 892 -179V-220H579V-180Q626 -180 639.0 -165.0Q652 -150 652 -108V-50Q652 -42 652.0 -33.5Q652 -25 652.0 -16.5Q652 -8 652 0V72H648Q607 29 573.0 8.5Q539 -12 493 -12Q454 -12 424.5 0.0Q395 12 375.0 36.0Q355 60 344.5 95.5Q334 131 334 178V250Z"/>
<path fill="#242c27" transform="translate(926.696 992.624) scale(0.024 -0.024)" d="M72 550V577Q72 611 64.5 620.5Q57 630 29 630Q16 630 8.0 629.0Q0 628 0 628V671L161 706H215V550V402H219Q242 432 273.5 459.0Q305 486 351 486Q406 486 441.5 459.5Q477 433 477 372V29H406Q339 70 332 59Q318 37 308.0 21.0Q298 5 285.5 -3.0Q273 -11 254 -11Q244 -11 235.0 -5.5Q226 0 218 15H215V-101Q215 -133 223.0 -150.0Q231 -167 252.0 -173.0Q273 -179 312 -179V-220H-1V-180Q46 -180 59.0 -165.0Q72 -150 72 -108V15ZM215 267Q226 270 239.0 274.0Q252 278 265.0 283.5Q278 289 290.5 295.5Q303 302 313.0 309.5Q323 317 328.5 325.5Q334 334 334 344Q334 381 322.5 398.0Q311 415 288 415Q280 415 272.0 410.0Q264 405 256.0 397.0Q248 389 240.5 379.5Q233 370 226.5 361.0Q220 352 215 344ZM334 208Q323 205 310.0 201.0Q297 197 284.0 191.5Q271 186 258.5 179.5Q246 173 236.0 165.5Q226 158 220.5 149.5Q215 141 215 131Q215 94 226.5 77.0Q238 60 261 60Q274 60 288.0 66.5Q302 73 314.0 84.0Q326 95 334 108ZM477 250V226Q477 188 481.0 155.5Q485 123 501.0 103.5Q517 84 554 84Q580 84 601.0 93.0Q622 102 652 127V300Q652 325 652.0 350.0Q652 375 652 400V595Q652 624 637.0 630.5Q622 637 603 637Q591 637 581.5 636.0Q572 635 572 635V675L729 706H795V400Q795 375 795.0 350.0Q795 325 795 300V0Q795 -8 795.0 -16.5Q795 -25 795.0 -33.5Q795 -42 795 -50V-101Q795 -133 803.0 -150.0Q811 -167 832.0 -173.0Q853 -179 892 -179V-220H579V-180Q626 -180 639.0 -165.0Q652 -150 652 -108V-50Q652 -42 652.0 -33.5Q652 -25 652.0 -16.5Q652 -8 652 0V72H648Q607 29 573.0 8.5Q539 -12 493 -12Q454 -12 424.5 0.0Q395 12 375.0 36.0Q355 60 344.5 95.5Q334 131 334 178V250Z"/>
<text x="768" y="1078.57" font-family="Segoe UI, sans-serif" font-size="16" fill="#667165" >48px</text>
<path fill="#242c27" transform="translate(842.048 1078.57) scale(0.048 -0.048)" d="M72 550V577Q72 611 64.5 620.5Q57 630 29 630Q16 630 8.0 629.0Q0 628 0 628V671L161 706H215V550V402H219Q242 432 273.5 459.0Q305 486 351 486Q406 486 441.5 459.5Q477 433 477 372V29H406Q339 70 332 59Q318 37 308.0 21.0Q298 5 285.5 -3.0Q273 -11 254 -11Q244 -11 235.0 -5.5Q226 0 218 15H215V-101Q215 -133 223.0 -150.0Q231 -167 252.0 -173.0Q273 -179 312 -179V-220H-1V-180Q46 -180 59.0 -165.0Q72 -150 72 -108V15ZM215 267Q226 270 239.0 274.0Q252 278 265.0 283.5Q278 289 290.5 295.5Q303 302 313.0 309.5Q323 317 328.5 325.5Q334 334 334 344Q334 381 322.5 398.0Q311 415 288 415Q280 415 272.0 410.0Q264 405 256.0 397.0Q248 389 240.5 379.5Q233 370 226.5 361.0Q220 352 215 344ZM334 208Q323 205 310.0 201.0Q297 197 284.0 191.5Q271 186 258.5 179.5Q246 173 236.0 165.5Q226 158 220.5 149.5Q215 141 215 131Q215 94 226.5 77.0Q238 60 261 60Q274 60 288.0 66.5Q302 73 314.0 84.0Q326 95 334 108ZM477 250V226Q477 188 481.0 155.5Q485 123 501.0 103.5Q517 84 554 84Q580 84 601.0 93.0Q622 102 652 127V300Q652 325 652.0 350.0Q652 375 652 400V595Q652 624 637.0 630.5Q622 637 603 637Q591 637 581.5 636.0Q572 635 572 635V675L729 706H795V400Q795 375 795.0 350.0Q795 325 795 300V0Q795 -8 795.0 -16.5Q795 -25 795.0 -33.5Q795 -42 795 -50V-101Q795 -133 803.0 -150.0Q811 -167 832.0 -173.0Q853 -179 892 -179V-220H579V-180Q626 -180 639.0 -165.0Q652 -150 652 -108V-50Q652 -42 652.0 -33.5Q652 -25 652.0 -16.5Q652 -8 652 0V72H648Q607 29 573.0 8.5Q539 -12 493 -12Q454 -12 424.5 0.0Q395 12 375.0 36.0Q355 60 344.5 95.5Q334 131 334 178V250Z"/>
<path fill="#242c27" transform="translate(884.384 1078.57) scale(0.048 -0.048)" d="M72 550V577Q72 611 64.5 620.5Q57 630 29 630Q16 630 8.0 629.0Q0 628 0 628V671L161 706H215V550V402H219Q242 432 273.5 459.0Q305 486 351 486Q406 486 441.5 459.5Q477 433 477 372V29H406Q339 70 332 59Q318 37 308.0 21.0Q298 5 285.5 -3.0Q273 -11 254 -11Q244 -11 235.0 -5.5Q226 0 218 15H215V-101Q215 -133 223.0 -150.0Q231 -167 252.0 -173.0Q273 -179 312 -179V-220H-1V-180Q46 -180 59.0 -165.0Q72 -150 72 -108V15ZM215 267Q226 270 239.0 274.0Q252 278 265.0 283.5Q278 289 290.5 295.5Q303 302 313.0 309.5Q323 317 328.5 325.5Q334 334 334 344Q334 381 322.5 398.0Q311 415 288 415Q280 415 272.0 410.0Q264 405 256.0 397.0Q248 389 240.5 379.5Q233 370 226.5 361.0Q220 352 215 344ZM334 208Q323 205 310.0 201.0Q297 197 284.0 191.5Q271 186 258.5 179.5Q246 173 236.0 165.5Q226 158 220.5 149.5Q215 141 215 131Q215 94 226.5 77.0Q238 60 261 60Q274 60 288.0 66.5Q302 73 314.0 84.0Q326 95 334 108ZM477 250V226Q477 188 481.0 155.5Q485 123 501.0 103.5Q517 84 554 84Q580 84 601.0 93.0Q622 102 652 127V300Q652 325 652.0 350.0Q652 375 652 400V595Q652 624 637.0 630.5Q622 637 603 637Q591 637 581.5 636.0Q572 635 572 635V675L729 706H795V400Q795 375 795.0 350.0Q795 325 795 300V0Q795 -8 795.0 -16.5Q795 -25 795.0 -33.5Q795 -42 795 -50V-101Q795 -133 803.0 -150.0Q811 -167 832.0 -173.0Q853 -179 892 -179V-220H579V-180Q626 -180 639.0 -165.0Q652 -150 652 -108V-50Q652 -42 652.0 -33.5Q652 -25 652.0 -16.5Q652 -8 652 0V72H648Q607 29 573.0 8.5Q539 -12 493 -12Q454 -12 424.5 0.0Q395 12 375.0 36.0Q355 60 344.5 95.5Q334 131 334 178V250Z"/>
<path fill="#242c27" transform="translate(926.72 1078.57) scale(0.048 -0.048)" d="M72 550V577Q72 611 64.5 620.5Q57 630 29 630Q16 630 8.0 629.0Q0 628 0 628V671L161 706H215V550V402H219Q242 432 273.5 459.0Q305 486 351 486Q406 486 441.5 459.5Q477 433 477 372V29H406Q339 70 332 59Q318 37 308.0 21.0Q298 5 285.5 -3.0Q273 -11 254 -11Q244 -11 235.0 -5.5Q226 0 218 15H215V-101Q215 -133 223.0 -150.0Q231 -167 252.0 -173.0Q273 -179 312 -179V-220H-1V-180Q46 -180 59.0 -165.0Q72 -150 72 -108V15ZM215 267Q226 270 239.0 274.0Q252 278 265.0 283.5Q278 289 290.5 295.5Q303 302 313.0 309.5Q323 317 328.5 325.5Q334 334 334 344Q334 381 322.5 398.0Q311 415 288 415Q280 415 272.0 410.0Q264 405 256.0 397.0Q248 389 240.5 379.5Q233 370 226.5 361.0Q220 352 215 344ZM334 208Q323 205 310.0 201.0Q297 197 284.0 191.5Q271 186 258.5 179.5Q246 173 236.0 165.5Q226 158 220.5 149.5Q215 141 215 131Q215 94 226.5 77.0Q238 60 261 60Q274 60 288.0 66.5Q302 73 314.0 84.0Q326 95 334 108ZM477 250V226Q477 188 481.0 155.5Q485 123 501.0 103.5Q517 84 554 84Q580 84 601.0 93.0Q622 102 652 127V300Q652 325 652.0 350.0Q652 375 652 400V595Q652 624 637.0 630.5Q622 637 603 637Q591 637 581.5 636.0Q572 635 572 635V675L729 706H795V400Q795 375 795.0 350.0Q795 325 795 300V0Q795 -8 795.0 -16.5Q795 -25 795.0 -33.5Q795 -42 795 -50V-101Q795 -133 803.0 -150.0Q811 -167 832.0 -173.0Q853 -179 892 -179V-220H579V-180Q626 -180 639.0 -165.0Q652 -150 652 -108V-50Q652 -42 652.0 -33.5Q652 -25 652.0 -16.5Q652 -8 652 0V72H648Q607 29 573.0 8.5Q539 -12 493 -12Q454 -12 424.5 0.0Q395 12 375.0 36.0Q355 60 344.5 95.5Q334 131 334 178V250Z"/>
<path fill="#242c27" transform="translate(969.056 1078.57) scale(0.048 -0.048)" d="M72 550V577Q72 611 64.5 620.5Q57 630 29 630Q16 630 8.0 629.0Q0 628 0 628V671L161 706H215V550V402H219Q242 432 273.5 459.0Q305 486 351 486Q406 486 441.5 459.5Q477 433 477 372V29H406Q339 70 332 59Q318 37 308.0 21.0Q298 5 285.5 -3.0Q273 -11 254 -11Q244 -11 235.0 -5.5Q226 0 218 15H215V-101Q215 -133 223.0 -150.0Q231 -167 252.0 -173.0Q273 -179 312 -179V-220H-1V-180Q46 -180 59.0 -165.0Q72 -150 72 -108V15ZM215 267Q226 270 239.0 274.0Q252 278 265.0 283.5Q278 289 290.5 295.5Q303 302 313.0 309.5Q323 317 328.5 325.5Q334 334 334 344Q334 381 322.5 398.0Q311 415 288 415Q280 415 272.0 410.0Q264 405 256.0 397.0Q248 389 240.5 379.5Q233 370 226.5 361.0Q220 352 215 344ZM334 208Q323 205 310.0 201.0Q297 197 284.0 191.5Q271 186 258.5 179.5Q246 173 236.0 165.5Q226 158 220.5 149.5Q215 141 215 131Q215 94 226.5 77.0Q238 60 261 60Q274 60 288.0 66.5Q302 73 314.0 84.0Q326 95 334 108ZM477 250V226Q477 188 481.0 155.5Q485 123 501.0 103.5Q517 84 554 84Q580 84 601.0 93.0Q622 102 652 127V300Q652 325 652.0 350.0Q652 375 652 400V595Q652 624 637.0 630.5Q622 637 603 637Q591 637 581.5 636.0Q572 635 572 635V675L729 706H795V400Q795 375 795.0 350.0Q795 325 795 300V0Q795 -8 795.0 -16.5Q795 -25 795.0 -33.5Q795 -42 795 -50V-101Q795 -133 803.0 -150.0Q811 -167 832.0 -173.0Q853 -179 892 -179V-220H579V-180Q626 -180 639.0 -165.0Q652 -150 652 -108V-50Q652 -42 652.0 -33.5Q652 -25 652.0 -16.5Q652 -8 652 0V72H648Q607 29 573.0 8.5Q539 -12 493 -12Q454 -12 424.5 0.0Q395 12 375.0 36.0Q355 60 344.5 95.5Q334 131 334 178V250Z"/>
<path fill="#242c27" transform="translate(1011.39 1078.57) scale(0.048 -0.048)" d="M72 550V577Q72 611 64.5 620.5Q57 630 29 630Q16 630 8.0 629.0Q0 628 0 628V671L161 706H215V550V402H219Q242 432 273.5 459.0Q305 486 351 486Q406 486 441.5 459.5Q477 433 477 372V29H406Q339 70 332 59Q318 37 308.0 21.0Q298 5 285.5 -3.0Q273 -11 254 -11Q244 -11 235.0 -5.5Q226 0 218 15H215V-101Q215 -133 223.0 -150.0Q231 -167 252.0 -173.0Q273 -179 312 -179V-220H-1V-180Q46 -180 59.0 -165.0Q72 -150 72 -108V15ZM215 267Q226 270 239.0 274.0Q252 278 265.0 283.5Q278 289 290.5 295.5Q303 302 313.0 309.5Q323 317 328.5 325.5Q334 334 334 344Q334 381 322.5 398.0Q311 415 288 415Q280 415 272.0 410.0Q264 405 256.0 397.0Q248 389 240.5 379.5Q233 370 226.5 361.0Q220 352 215 344ZM334 208Q323 205 310.0 201.0Q297 197 284.0 191.5Q271 186 258.5 179.5Q246 173 236.0 165.5Q226 158 220.5 149.5Q215 141 215 131Q215 94 226.5 77.0Q238 60 261 60Q274 60 288.0 66.5Q302 73 314.0 84.0Q326 95 334 108ZM477 250V226Q477 188 481.0 155.5Q485 123 501.0 103.5Q517 84 554 84Q580 84 601.0 93.0Q622 102 652 127V300Q652 325 652.0 350.0Q652 375 652 400V595Q652 624 637.0 630.5Q622 637 603 637Q591 637 581.5 636.0Q572 635 572 635V675L729 706H795V400Q795 375 795.0 350.0Q795 325 795 300V0Q795 -8 795.0 -16.5Q795 -25 795.0 -33.5Q795 -42 795 -50V-101Q795 -133 803.0 -150.0Q811 -167 832.0 -173.0Q853 -179 892 -179V-220H579V-180Q626 -180 639.0 -165.0Q652 -150 652 -108V-50Q652 -42 652.0 -33.5Q652 -25 652.0 -16.5Q652 -8 652 0V72H648Q607 29 573.0 8.5Q539 -12 493 -12Q454 -12 424.5 0.0Q395 12 375.0 36.0Q355 60 344.5 95.5Q334 131 334 178V250Z"/>
<text x="30" y="1144" font-family="Segoe UI, sans-serif" font-size="14" fill="#667165" >Same compiled outline at each size; repeated glyphs use native advances. No webfont dependency.</text>
</svg>
