<svg xmlns="http://www.w3.org/2000/svg" viewBox="0 0 1380 1390">
<title>All affected constructions · Italic 400</title>
<rect width="1380" height="1390" fill="#faf9f6"/>
<text x="30" y="43" fill="#242c27" font-family="Segoe UI,sans-serif" font-size="28">All affected constructions · Italic 400</text>
<text x="30" y="74" fill="#687266" font-family="Segoe UI,sans-serif" font-size="17">Before / after · compiled outlines at 100px and 24px · current code points</text>
<g><title>U+F2A05 · hook</title>
<path d="M30 100H450" stroke="#d8dacf"/>
<text x="30" y="124" fill="#242c27" font-family="Segoe UI,sans-serif" font-size="14">U+F2A05 · hook</text>
<text x="55" y="147" fill="#687266" font-family="Segoe UI,sans-serif" font-size="12">Before</text>
<path fill="#242c27" transform="translate(55 270) scale(0.1 -0.1)" d="M115 300 140 447Q148 498 159 542Q170 585 189 618Q202 642 222 663Q241 684 270 698Q299 711 342 711Q373 711 394 702Q415 692 426 676Q437 660 437 638Q437 616 425 605Q413 594 397 594Q377 594 368 606Q359 617 357 633Q354 652 350 667Q345 682 327 682Q289 682 267 642Q245 602 234 538L195 300Q194 295 193.5 290.5Q193 286 192.0 281.5Q191 277 190.0 272.0Q189 267 188.0 262.5Q187 258 186.0 253.0Q185 248 184.0 243.5Q183 239 182.0 234.5Q181 230 180.0 225.0Q179 220 178.0 215.5Q177 211 176.0 206.5Q175 202 174.0 197.0Q173 192 172.0 187.5Q171 183 170.0 178.0Q169 173 168.0 168.5Q167 164 166.0 159.5Q165 155 164 150L158 120Q158 120 157.5 116.0Q157 112 155 105Q153 89 153 78Q153 59 171 59Q197 59 216 79Q235 98 247 111L267 96Q250 72 230 48Q210 23 185 7Q160 -9 127 -9Q97 -9 80 5Q64 18 64 44Q64 57 67 78Q71 98 81 142L83 150Q84 156 85.0 161.5Q86 167 87.5 173.0Q89 179 90.5 184.5Q92 190 93.0 196.0Q94 202 95.5 207.5Q97 213 98.5 219.0Q100 225 101.0 231.0Q102 237 103.5 242.5Q105 248 106.5 254.0Q108 260 109.0 265.5Q110 271 111.0 277.0Q112 283 113.0 288.5Q114 294 115 300Z"/>
<path fill="#242c27" transform="translate(55 325) scale(0.024 -0.024)" d="M115 300 140 447Q148 498 159 542Q170 585 189 618Q202 642 222 663Q241 684 270 698Q299 711 342 711Q373 711 394 702Q415 692 426 676Q437 660 437 638Q437 616 425 605Q413 594 397 594Q377 594 368 606Q359 617 357 633Q354 652 350 667Q345 682 327 682Q289 682 267 642Q245 602 234 538L195 300Q194 295 193.5 290.5Q193 286 192.0 281.5Q191 277 190.0 272.0Q189 267 188.0 262.5Q187 258 186.0 253.0Q185 248 184.0 243.5Q183 239 182.0 234.5Q181 230 180.0 225.0Q179 220 178.0 215.5Q177 211 176.0 206.5Q175 202 174.0 197.0Q173 192 172.0 187.5Q171 183 170.0 178.0Q169 173 168.0 168.5Q167 164 166.0 159.5Q165 155 164 150L158 120Q158 120 157.5 116.0Q157 112 155 105Q153 89 153 78Q153 59 171 59Q197 59 216 79Q235 98 247 111L267 96Q250 72 230 48Q210 23 185 7Q160 -9 127 -9Q97 -9 80 5Q64 18 64 44Q64 57 67 78Q71 98 81 142L83 150Q84 156 85.0 161.5Q86 167 87.5 173.0Q89 179 90.5 184.5Q92 190 93.0 196.0Q94 202 95.5 207.5Q97 213 98.5 219.0Q100 225 101.0 231.0Q102 237 103.5 242.5Q105 248 106.5 254.0Q108 260 109.0 265.5Q110 271 111.0 277.0Q112 283 113.0 288.5Q114 294 115 300Z"/>
<text x="265" y="147" fill="#687266" font-family="Segoe UI,sans-serif" font-size="12">After</text>
<path fill="#242c27" transform="translate(265 270) scale(0.1 -0.1)" d="M115 300 146 447Q156 498 169 542Q182 585 202 618Q217 642 237 663Q257 684 287 698Q316 711 359 711Q390 711 411 702Q432 692 442 676Q452 660 451 638Q450 616 438 605Q425 594 409 594Q389 594 381 606Q372 617 371 633Q369 652 365 667Q361 682 343 682Q305 682 282 642Q258 602 244 538L195 300Q194 293 192.5 285.5Q191 278 189.0 270.5Q187 263 185.5 255.5Q184 248 182.5 240.5Q181 233 179.5 225.5Q178 218 176.5 210.5Q175 203 173.5 195.5Q172 188 170.5 180.5Q169 173 167.5 165.5Q166 158 165 150L159 120Q159 120 158.0 116.0Q157 112 156 105Q154 89 154 78Q154 59 172 59Q198 59 217 79Q236 98 248 111L268 96Q251 72 231 48Q211 23 186 7Q161 -9 128 -9Q98 -9 81 5Q65 18 65 44Q65 57 68 78Q72 98 82 142L83 150Q85 158 86.5 165.5Q88 173 89.5 180.5Q91 188 93.0 195.5Q95 203 96.5 210.5Q98 218 99.5 225.5Q101 233 102.5 240.5Q104 248 105.5 255.5Q107 263 109.0 270.5Q111 278 112.5 285.5Q114 293 115 300Z"/>
<path fill="#242c27" transform="translate(265 325) scale(0.024 -0.024)" d="M115 300 146 447Q156 498 169 542Q182 585 202 618Q217 642 237 663Q257 684 287 698Q316 711 359 711Q390 711 411 702Q432 692 442 676Q452 660 451 638Q450 616 438 605Q425 594 409 594Q389 594 381 606Q372 617 371 633Q369 652 365 667Q361 682 343 682Q305 682 282 642Q258 602 244 538L195 300Q194 293 192.5 285.5Q191 278 189.0 270.5Q187 263 185.5 255.5Q184 248 182.5 240.5Q181 233 179.5 225.5Q178 218 176.5 210.5Q175 203 173.5 195.5Q172 188 170.5 180.5Q169 173 167.5 165.5Q166 158 165 150L159 120Q159 120 158.0 116.0Q157 112 156 105Q154 89 154 78Q154 59 172 59Q198 59 217 79Q236 98 248 111L268 96Q251 72 231 48Q211 23 186 7Q161 -9 128 -9Q98 -9 81 5Q65 18 65 44Q65 57 68 78Q72 98 82 142L83 150Q85 158 86.5 165.5Q88 173 89.5 180.5Q91 188 93.0 195.5Q95 203 96.5 210.5Q98 218 99.5 225.5Q101 233 102.5 240.5Q104 248 105.5 255.5Q107 263 109.0 270.5Q111 278 112.5 285.5Q114 293 115 300Z"/>
</g>
<g><title>U+F2A06 · descender</title>
<path d="M470 100H890" stroke="#d8dacf"/>
<text x="470" y="124" fill="#242c27" font-family="Segoe UI,sans-serif" font-size="14">U+F2A06 · descender</text>
<text x="495" y="147" fill="#687266" font-family="Segoe UI,sans-serif" font-size="12">Before</text>
<path fill="#242c27" transform="translate(495 270) scale(0.1 -0.1)" d="M103 300 120 380Q120 380 120.5 382.5Q121 385 122 389Q123 398 123 411Q123 421 117 431Q111 440 91 440Q78 440 68 439Q62 438 59.5 438.0Q57 438 57 438V465L196 476H218L182 300Q180 289 178.0 278.5Q176 268 174.0 257.0Q172 246 169.5 235.5Q167 225 165.0 214.5Q163 204 161.0 193.0Q159 182 156.5 171.5Q154 161 152 150L100 -101Q99 -108 97 -120Q96 -132 96 -143Q96 -160 116 -176Q137 -193 197 -193L190 -220H-6L70 150Q71 158 72.5 165.5Q74 173 76.0 180.5Q78 188 79.5 195.5Q81 203 82.5 210.5Q84 218 86.0 225.5Q88 233 89.5 240.5Q91 248 93.0 255.5Q95 263 96.5 270.5Q98 278 99.5 285.5Q101 293 103 300Z"/>
<path fill="#242c27" transform="translate(495 325) scale(0.024 -0.024)" d="M103 300 120 380Q120 380 120.5 382.5Q121 385 122 389Q123 398 123 411Q123 421 117 431Q111 440 91 440Q78 440 68 439Q62 438 59.5 438.0Q57 438 57 438V465L196 476H218L182 300Q180 289 178.0 278.5Q176 268 174.0 257.0Q172 246 169.5 235.5Q167 225 165.0 214.5Q163 204 161.0 193.0Q159 182 156.5 171.5Q154 161 152 150L100 -101Q99 -108 97 -120Q96 -132 96 -143Q96 -160 116 -176Q137 -193 197 -193L190 -220H-6L70 150Q71 158 72.5 165.5Q74 173 76.0 180.5Q78 188 79.5 195.5Q81 203 82.5 210.5Q84 218 86.0 225.5Q88 233 89.5 240.5Q91 248 93.0 255.5Q95 263 96.5 270.5Q98 278 99.5 285.5Q101 293 103 300Z"/>
<text x="705" y="147" fill="#687266" font-family="Segoe UI,sans-serif" font-size="12">After</text>
<path fill="#242c27" transform="translate(705 270) scale(0.1 -0.1)" d="M103 300 120 380Q120 380 120.5 382.5Q121 385 121 389Q123 398 123 411Q123 421 117 431Q111 440 91 440Q78 440 67 439Q62 438 59.5 438.0Q57 438 57 438V465L196 476H218L182 300Q181 292 179.0 283.5Q177 275 175.5 266.5Q174 258 172.5 250.0Q171 242 169.5 233.5Q168 225 166.0 216.5Q164 208 162.5 200.0Q161 192 159.5 183.5Q158 175 156.0 166.5Q154 158 153 150L100 -101Q99 -108 98 -120Q96 -132 96 -143Q96 -160 117 -176Q137 -193 197 -193L190 -220H-6L70 150Q72 158 74.0 166.5Q76 175 77.5 183.5Q79 192 81.0 200.0Q83 208 84.5 216.5Q86 225 88.0 233.5Q90 242 92.0 250.0Q94 258 95.5 266.5Q97 275 99.0 283.5Q101 292 103 300Z"/>
<path fill="#242c27" transform="translate(705 325) scale(0.024 -0.024)" d="M103 300 120 380Q120 380 120.5 382.5Q121 385 121 389Q123 398 123 411Q123 421 117 431Q111 440 91 440Q78 440 67 439Q62 438 59.5 438.0Q57 438 57 438V465L196 476H218L182 300Q181 292 179.0 283.5Q177 275 175.5 266.5Q174 258 172.5 250.0Q171 242 169.5 233.5Q168 225 166.0 216.5Q164 208 162.5 200.0Q161 192 159.5 183.5Q158 175 156.0 166.5Q154 158 153 150L100 -101Q99 -108 98 -120Q96 -132 96 -143Q96 -160 117 -176Q137 -193 197 -193L190 -220H-6L70 150Q72 158 74.0 166.5Q76 175 77.5 183.5Q79 192 81.0 200.0Q83 208 84.5 216.5Q86 225 88.0 233.5Q90 242 92.0 250.0Q94 258 95.5 266.5Q97 275 99.0 283.5Q101 292 103 300Z"/>
</g>
<g><title>U+F2A07 · long stem</title>
<path d="M910 100H1330" stroke="#d8dacf"/>
<text x="910" y="124" fill="#242c27" font-family="Segoe UI,sans-serif" font-size="14">U+F2A07 · long stem</text>
<text x="935" y="147" fill="#687266" font-family="Segoe UI,sans-serif" font-size="12">Before</text>
<path fill="#242c27" transform="translate(935 270) scale(0.1 -0.1)" d="M93 300 157 608Q157 608 157.5 610.5Q158 613 159 618Q160 628 160 640Q160 650 155 660Q149 670 129 670Q116 670 106 669Q100 668 97.5 668.0Q95 668 95 668V694L233 705H255L175 300Q173 293 171.5 285.5Q170 278 168.5 270.5Q167 263 165.5 255.5Q164 248 162.5 240.5Q161 233 159.0 225.5Q157 218 155.5 210.5Q154 203 152.5 195.5Q151 188 149.5 180.5Q148 173 146.5 165.5Q145 158 143 150L91 -101Q90 -108 88 -120Q87 -132 87 -143Q87 -160 107 -176Q128 -193 188 -193L181 -220H-15L61 150Q62 158 64.0 166.5Q66 175 67.5 183.5Q69 192 71.0 200.0Q73 208 75.0 216.5Q77 225 78.5 233.5Q80 242 82.0 250.0Q84 258 85.5 266.5Q87 275 89.0 283.5Q91 292 93 300Z"/>
<path fill="#242c27" transform="translate(935 325) scale(0.024 -0.024)" d="M93 300 157 608Q157 608 157.5 610.5Q158 613 159 618Q160 628 160 640Q160 650 155 660Q149 670 129 670Q116 670 106 669Q100 668 97.5 668.0Q95 668 95 668V694L233 705H255L175 300Q173 293 171.5 285.5Q170 278 168.5 270.5Q167 263 165.5 255.5Q164 248 162.5 240.5Q161 233 159.0 225.5Q157 218 155.5 210.5Q154 203 152.5 195.5Q151 188 149.5 180.5Q148 173 146.5 165.5Q145 158 143 150L91 -101Q90 -108 88 -120Q87 -132 87 -143Q87 -160 107 -176Q128 -193 188 -193L181 -220H-15L61 150Q62 158 64.0 166.5Q66 175 67.5 183.5Q69 192 71.0 200.0Q73 208 75.0 216.5Q77 225 78.5 233.5Q80 242 82.0 250.0Q84 258 85.5 266.5Q87 275 89.0 283.5Q91 292 93 300Z"/>
<text x="1145" y="147" fill="#687266" font-family="Segoe UI,sans-serif" font-size="12">After</text>
<path fill="#242c27" transform="translate(1145 270) scale(0.1 -0.1)" d="M93 300 158 608Q158 608 158.5 610.5Q159 613 160 618Q161 628 161 640Q161 650 156 660Q150 670 130 670Q117 670 107 669Q102 668 99.0 668.0Q96 668 96 668V694L234 705H256L175 300Q172 285 169.0 270.0Q166 255 162.5 240.0Q159 225 156.0 210.0Q153 195 150.0 180.0Q147 165 144 150L91 -101Q90 -108 89 -120Q87 -132 87 -143Q87 -160 108 -176Q128 -193 188 -193L181 -220H-15L61 150Q64 165 67.5 180.0Q71 195 74.0 210.0Q77 225 80.0 240.0Q83 255 86.0 270.0Q89 285 93 300Z"/>
<path fill="#242c27" transform="translate(1145 325) scale(0.024 -0.024)" d="M93 300 158 608Q158 608 158.5 610.5Q159 613 160 618Q161 628 161 640Q161 650 156 660Q150 670 130 670Q117 670 107 669Q102 668 99.0 668.0Q96 668 96 668V694L234 705H256L175 300Q172 285 169.0 270.0Q166 255 162.5 240.0Q159 225 156.0 210.0Q153 195 150.0 180.0Q147 165 144 150L91 -101Q90 -108 89 -120Q87 -132 87 -143Q87 -160 108 -176Q128 -193 188 -193L181 -220H-15L61 150Q64 165 67.5 180.0Q71 195 74.0 210.0Q77 225 80.0 240.0Q83 255 86.0 270.0Q89 285 93 300Z"/>
</g>
<g><title>U+F2A08 · long hook</title>
<path d="M30 350H450" stroke="#d8dacf"/>
<text x="30" y="374" fill="#242c27" font-family="Segoe UI,sans-serif" font-size="14">U+F2A08 · long hook</text>
<text x="55" y="397" fill="#687266" font-family="Segoe UI,sans-serif" font-size="12">Before</text>
<path fill="#242c27" transform="translate(55 520) scale(0.1 -0.1)" d="M115 300 140 447Q148 498 159 542Q170 585 189 618Q202 642 222 663Q241 684 270 698Q299 711 342 711Q373 711 394 702Q415 692 426 676Q437 660 437 638Q437 616 425 605Q413 594 397 594Q377 594 368 606Q359 617 357 633Q354 652 350 667Q345 682 327 682Q289 682 267 642Q245 602 234 538L195 300Q194 295 193.5 290.5Q193 286 192.0 281.5Q191 277 190.0 272.0Q189 267 188.0 262.5Q187 258 186.5 253.0Q186 248 185.0 243.5Q184 239 183.0 234.5Q182 230 181.0 225.0Q180 220 179.0 215.5Q178 211 177.0 206.5Q176 202 175.0 197.0Q174 192 173.0 187.5Q172 183 170.5 178.0Q169 173 168.0 168.5Q167 164 166.0 159.5Q165 155 164 150L112 -101Q111 -108 110 -120Q108 -132 108 -143Q108 -160 129 -176Q149 -193 209 -193L202 -220H6L82 150Q83 155 84.0 160.0Q85 165 86.5 170.0Q88 175 89.0 180.0Q90 185 91.0 190.0Q92 195 93.5 200.0Q95 205 96.0 210.0Q97 215 98.0 220.0Q99 225 100.5 230.0Q102 235 103.0 240.0Q104 245 105.0 250.0Q106 255 107.5 260.0Q109 265 110.0 270.0Q111 275 112.0 280.0Q113 285 113.5 290.0Q114 295 115 300Z"/>
<path fill="#242c27" transform="translate(55 575) scale(0.024 -0.024)" d="M115 300 140 447Q148 498 159 542Q170 585 189 618Q202 642 222 663Q241 684 270 698Q299 711 342 711Q373 711 394 702Q415 692 426 676Q437 660 437 638Q437 616 425 605Q413 594 397 594Q377 594 368 606Q359 617 357 633Q354 652 350 667Q345 682 327 682Q289 682 267 642Q245 602 234 538L195 300Q194 295 193.5 290.5Q193 286 192.0 281.5Q191 277 190.0 272.0Q189 267 188.0 262.5Q187 258 186.5 253.0Q186 248 185.0 243.5Q184 239 183.0 234.5Q182 230 181.0 225.0Q180 220 179.0 215.5Q178 211 177.0 206.5Q176 202 175.0 197.0Q174 192 173.0 187.5Q172 183 170.5 178.0Q169 173 168.0 168.5Q167 164 166.0 159.5Q165 155 164 150L112 -101Q111 -108 110 -120Q108 -132 108 -143Q108 -160 129 -176Q149 -193 209 -193L202 -220H6L82 150Q83 155 84.0 160.0Q85 165 86.5 170.0Q88 175 89.0 180.0Q90 185 91.0 190.0Q92 195 93.5 200.0Q95 205 96.0 210.0Q97 215 98.0 220.0Q99 225 100.5 230.0Q102 235 103.0 240.0Q104 245 105.0 250.0Q106 255 107.5 260.0Q109 265 110.0 270.0Q111 275 112.0 280.0Q113 285 113.5 290.0Q114 295 115 300Z"/>
<text x="265" y="397" fill="#687266" font-family="Segoe UI,sans-serif" font-size="12">After</text>
<path fill="#242c27" transform="translate(265 520) scale(0.1 -0.1)" d="M115 300 146 447Q156 498 169 542Q182 585 202 618Q216 642 237 663Q257 684 286 698Q316 711 359 711Q390 711 411 702Q431 692 442 676Q452 660 451 638Q450 616 438 605Q425 594 409 594Q389 594 381 606Q372 617 371 633Q369 652 365 667Q361 682 343 682Q305 682 281 642Q257 602 244 538L195 300Q194 293 192.5 285.5Q191 278 189.5 270.5Q188 263 186.5 255.5Q185 248 183.5 240.5Q182 233 180.5 225.5Q179 218 177.5 210.5Q176 203 174.5 195.5Q173 188 171.5 180.5Q170 173 168.5 165.5Q167 158 165 150L113 -101Q112 -108 110 -120Q109 -132 109 -143Q109 -160 129 -176Q150 -193 210 -193L203 -220H7L83 150Q84 158 86.0 165.5Q88 173 89.5 180.5Q91 188 92.5 195.5Q94 203 95.5 210.5Q97 218 99.0 225.5Q101 233 102.5 240.5Q104 248 105.5 255.5Q107 263 108.5 270.5Q110 278 112.0 285.5Q114 293 115 300Z"/>
<path fill="#242c27" transform="translate(265 575) scale(0.024 -0.024)" d="M115 300 146 447Q156 498 169 542Q182 585 202 618Q216 642 237 663Q257 684 286 698Q316 711 359 711Q390 711 411 702Q431 692 442 676Q452 660 451 638Q450 616 438 605Q425 594 409 594Q389 594 381 606Q372 617 371 633Q369 652 365 667Q361 682 343 682Q305 682 281 642Q257 602 244 538L195 300Q194 293 192.5 285.5Q191 278 189.5 270.5Q188 263 186.5 255.5Q185 248 183.5 240.5Q182 233 180.5 225.5Q179 218 177.5 210.5Q176 203 174.5 195.5Q173 188 171.5 180.5Q170 173 168.5 165.5Q167 158 165 150L113 -101Q112 -108 110 -120Q109 -132 109 -143Q109 -160 129 -176Q150 -193 210 -193L203 -220H7L83 150Q84 158 86.0 165.5Q88 173 89.5 180.5Q91 188 92.5 195.5Q94 203 95.5 210.5Q97 218 99.0 225.5Q101 233 102.5 240.5Q104 248 105.5 255.5Q107 263 108.5 270.5Q110 278 112.0 285.5Q114 293 115 300Z"/>
</g>
<g><title>U+F2A0A · long tail</title>
<path d="M470 350H890" stroke="#d8dacf"/>
<text x="470" y="374" fill="#242c27" font-family="Segoe UI,sans-serif" font-size="14">U+F2A0A · long tail</text>
<text x="495" y="397" fill="#687266" font-family="Segoe UI,sans-serif" font-size="12">Before</text>
<path fill="#242c27" transform="translate(495 520) scale(0.1 -0.1)" d="M93 300 157 608Q157 608 157.5 610.5Q158 613 159 618Q160 628 160 640Q160 650 155 660Q149 670 129 670Q116 670 106 669Q100 668 97.5 668.0Q95 668 95 668V694L233 705H255L175 300Q174 294 172.5 288.5Q171 283 170.0 277.0Q169 271 167.5 265.5Q166 260 165.0 254.0Q164 248 162.5 242.5Q161 237 160.0 231.0Q159 225 157.5 219.0Q156 213 154.5 207.5Q153 202 152.0 196.0Q151 190 150.0 184.5Q149 179 147.5 173.0Q146 167 145.0 161.5Q144 156 143 150L132 88Q127 59 117 19Q108 -21 92 -63Q76 -106 53 -142Q31 -179 -1 -202Q-32 -225 -73 -225Q-121 -225 -142 -201Q-163 -178 -163 -150Q-163 -134 -154 -119Q-144 -104 -123 -104Q-102 -104 -94 -117Q-86 -131 -83 -148Q-80 -165 -76 -178Q-71 -192 -56 -192Q-41 -192 -28 -173Q-14 -154 -3 -124Q9 -95 17 -61Q26 -28 32 2Q39 31 42 49L60 150Q62 156 63.0 162.5Q64 169 65.5 175.0Q67 181 68.0 187.5Q69 194 70.5 200.0Q72 206 73.5 212.5Q75 219 76.0 225.0Q77 231 78.5 237.5Q80 244 81.5 250.0Q83 256 84.5 262.5Q86 269 87.5 275.0Q89 281 90.0 287.5Q91 294 93 300Z"/>
<path fill="#242c27" transform="translate(495 575) scale(0.024 -0.024)" d="M93 300 157 608Q157 608 157.5 610.5Q158 613 159 618Q160 628 160 640Q160 650 155 660Q149 670 129 670Q116 670 106 669Q100 668 97.5 668.0Q95 668 95 668V694L233 705H255L175 300Q174 294 172.5 288.5Q171 283 170.0 277.0Q169 271 167.5 265.5Q166 260 165.0 254.0Q164 248 162.5 242.5Q161 237 160.0 231.0Q159 225 157.5 219.0Q156 213 154.5 207.5Q153 202 152.0 196.0Q151 190 150.0 184.5Q149 179 147.5 173.0Q146 167 145.0 161.5Q144 156 143 150L132 88Q127 59 117 19Q108 -21 92 -63Q76 -106 53 -142Q31 -179 -1 -202Q-32 -225 -73 -225Q-121 -225 -142 -201Q-163 -178 -163 -150Q-163 -134 -154 -119Q-144 -104 -123 -104Q-102 -104 -94 -117Q-86 -131 -83 -148Q-80 -165 -76 -178Q-71 -192 -56 -192Q-41 -192 -28 -173Q-14 -154 -3 -124Q9 -95 17 -61Q26 -28 32 2Q39 31 42 49L60 150Q62 156 63.0 162.5Q64 169 65.5 175.0Q67 181 68.0 187.5Q69 194 70.5 200.0Q72 206 73.5 212.5Q75 219 76.0 225.0Q77 231 78.5 237.5Q80 244 81.5 250.0Q83 256 84.5 262.5Q86 269 87.5 275.0Q89 281 90.0 287.5Q91 294 93 300Z"/>
<text x="705" y="397" fill="#687266" font-family="Segoe UI,sans-serif" font-size="12">After</text>
<path fill="#242c27" transform="translate(705 520) scale(0.1 -0.1)" d="M93 300 150 608Q150 608 150.5 610.5Q151 613 152 618Q153 628 153 640Q153 650 147 660Q141 670 121 670Q108 670 98 669Q92 668 89.5 668.0Q87 668 87 668V694L224 705H246L175 300Q172 288 170.0 275.5Q168 263 165.5 250.5Q163 238 161.0 225.5Q159 213 156.5 200.5Q154 188 152.0 175.5Q150 163 148 150L136 88Q131 59 122 19Q112 -21 96 -63Q80 -106 58 -142Q35 -179 4 -202Q-28 -225 -69 -225Q-117 -225 -138 -201Q-159 -178 -159 -150Q-159 -134 -149 -119Q-140 -104 -119 -104Q-98 -104 -90 -117Q-82 -131 -79 -148Q-76 -165 -71 -178Q-67 -192 -52 -192Q-37 -192 -23 -173Q-10 -154 2 -124Q13 -95 22 -61Q30 -28 37 2Q43 31 46 49L65 150Q67 163 69.5 175.5Q72 188 74.0 200.5Q76 213 78.5 225.5Q81 238 83.5 250.5Q86 263 88.0 275.5Q90 288 93 300Z"/>
<path fill="#242c27" transform="translate(705 575) scale(0.024 -0.024)" d="M93 300 150 608Q150 608 150.5 610.5Q151 613 152 618Q153 628 153 640Q153 650 147 660Q141 670 121 670Q108 670 98 669Q92 668 89.5 668.0Q87 668 87 668V694L224 705H246L175 300Q172 288 170.0 275.5Q168 263 165.5 250.5Q163 238 161.0 225.5Q159 213 156.5 200.5Q154 188 152.0 175.5Q150 163 148 150L136 88Q131 59 122 19Q112 -21 96 -63Q80 -106 58 -142Q35 -179 4 -202Q-28 -225 -69 -225Q-117 -225 -138 -201Q-159 -178 -159 -150Q-159 -134 -149 -119Q-140 -104 -119 -104Q-98 -104 -90 -117Q-82 -131 -79 -148Q-76 -165 -71 -178Q-67 -192 -52 -192Q-37 -192 -23 -173Q-10 -154 2 -124Q13 -95 22 -61Q30 -28 37 2Q43 31 46 49L65 150Q67 163 69.5 175.5Q72 188 74.0 200.5Q76 213 78.5 225.5Q81 238 83.5 250.5Q86 263 88.0 275.5Q90 288 93 300Z"/>
</g>
<g><title>U+F2A0D · ascender with shoulder</title>
<path d="M910 350H1330" stroke="#d8dacf"/>
<text x="910" y="374" fill="#242c27" font-family="Segoe UI,sans-serif" font-size="14">U+F2A0D · ascender with shoulder</text>
<text x="935" y="397" fill="#687266" font-family="Segoe UI,sans-serif" font-size="12">Before</text>
<path fill="#242c27" transform="translate(935 520) scale(0.1 -0.1)" d="M109 300 174 608Q174 608 175.5 618.0Q177 628 177 640Q177 650 171.5 660.0Q166 670 146 670Q133 670 122.5 669.0Q112 668 112 668V694L250 705H272L191 300Q190 292 188.0 283.5Q186 275 184.5 266.5Q183 258 181.5 250.0Q180 242 178.5 233.5Q177 225 175.0 216.5Q173 208 171.5 200.0Q170 192 168.0 183.5Q166 175 164.5 166.5Q163 158 161 150L129 0H44L76 150Q77 157 78.5 163.5Q80 170 81.5 177.0Q83 184 84.5 191.0Q86 198 87.5 204.5Q89 211 90.5 218.0Q92 225 94.0 232.0Q96 239 97.5 245.5Q99 252 100.5 259.0Q102 266 103.5 273.0Q105 280 106.5 286.5Q108 293 109 300ZM144 90 183 249Q192 267 205.0 295.5Q218 324 234.5 355.5Q251 387 270.5 415.5Q290 444 313.0 461.5Q336 479 361 479Q384 479 400.0 464.5Q416 450 416 421Q416 388 399.5 373.0Q383 358 363 358Q347 358 337.5 367.5Q328 377 324.0 386.0Q320 395 318 395Q303 395 283.0 370.5Q263 346 242.0 307.5Q221 269 201.5 226.5Q182 184 167.0 147.0Q152 110 144 90Z"/>
<path fill="#242c27" transform="translate(935 575) scale(0.024 -0.024)" d="M109 300 174 608Q174 608 175.5 618.0Q177 628 177 640Q177 650 171.5 660.0Q166 670 146 670Q133 670 122.5 669.0Q112 668 112 668V694L250 705H272L191 300Q190 292 188.0 283.5Q186 275 184.5 266.5Q183 258 181.5 250.0Q180 242 178.5 233.5Q177 225 175.0 216.5Q173 208 171.5 200.0Q170 192 168.0 183.5Q166 175 164.5 166.5Q163 158 161 150L129 0H44L76 150Q77 157 78.5 163.5Q80 170 81.5 177.0Q83 184 84.5 191.0Q86 198 87.5 204.5Q89 211 90.5 218.0Q92 225 94.0 232.0Q96 239 97.5 245.5Q99 252 100.5 259.0Q102 266 103.5 273.0Q105 280 106.5 286.5Q108 293 109 300ZM144 90 183 249Q192 267 205.0 295.5Q218 324 234.5 355.5Q251 387 270.5 415.5Q290 444 313.0 461.5Q336 479 361 479Q384 479 400.0 464.5Q416 450 416 421Q416 388 399.5 373.0Q383 358 363 358Q347 358 337.5 367.5Q328 377 324.0 386.0Q320 395 318 395Q303 395 283.0 370.5Q263 346 242.0 307.5Q221 269 201.5 226.5Q182 184 167.0 147.0Q152 110 144 90Z"/>
<text x="1145" y="397" fill="#687266" font-family="Segoe UI,sans-serif" font-size="12">After</text>
<path fill="#242c27" transform="translate(1145 520) scale(0.1 -0.1)" d="M109 300 177 608Q177 608 178.5 618.0Q180 628 180 640Q180 650 175.0 660.0Q170 670 150 670Q137 670 126.5 669.0Q116 668 116 668V694L254 705H276L191 300Q190 293 188.5 285.5Q187 278 185.5 270.5Q184 263 182.5 255.5Q181 248 179.5 240.5Q178 233 176.5 225.5Q175 218 173.5 210.5Q172 203 170.5 195.5Q169 188 167.5 180.5Q166 173 164.0 165.5Q162 158 161 150L128 0H43L75 150Q77 158 78.5 165.5Q80 173 82.0 180.5Q84 188 85.5 195.5Q87 203 88.5 210.5Q90 218 92.0 225.5Q94 233 95.5 240.5Q97 248 99.0 255.5Q101 263 102.5 270.5Q104 278 106.0 285.5Q108 293 109 300ZM144 90 183 249Q192 267 205.0 295.5Q218 324 234.5 355.5Q251 387 270.5 415.5Q290 444 313.0 461.5Q336 479 361 479Q384 479 400.0 464.5Q416 450 416 421Q416 388 399.5 373.0Q383 358 363 358Q347 358 337.5 367.5Q328 377 324.0 386.0Q320 395 318 395Q303 395 283.0 370.5Q263 346 242.0 307.5Q221 269 201.5 226.5Q182 184 167.0 147.0Q152 110 144 90Z"/>
<path fill="#242c27" transform="translate(1145 575) scale(0.024 -0.024)" d="M109 300 177 608Q177 608 178.5 618.0Q180 628 180 640Q180 650 175.0 660.0Q170 670 150 670Q137 670 126.5 669.0Q116 668 116 668V694L254 705H276L191 300Q190 293 188.5 285.5Q187 278 185.5 270.5Q184 263 182.5 255.5Q181 248 179.5 240.5Q178 233 176.5 225.5Q175 218 173.5 210.5Q172 203 170.5 195.5Q169 188 167.5 180.5Q166 173 164.0 165.5Q162 158 161 150L128 0H43L75 150Q77 158 78.5 165.5Q80 173 82.0 180.5Q84 188 85.5 195.5Q87 203 88.5 210.5Q90 218 92.0 225.5Q94 233 95.5 240.5Q97 248 99.0 255.5Q101 263 102.5 270.5Q104 278 106.0 285.5Q108 293 109 300ZM144 90 183 249Q192 267 205.0 295.5Q218 324 234.5 355.5Q251 387 270.5 415.5Q290 444 313.0 461.5Q336 479 361 479Q384 479 400.0 464.5Q416 450 416 421Q416 388 399.5 373.0Q383 358 363 358Q347 358 337.5 367.5Q328 377 324.0 386.0Q320 395 318 395Q303 395 283.0 370.5Q263 346 242.0 307.5Q221 269 201.5 226.5Q182 184 167.0 147.0Q152 110 144 90Z"/>
</g>
<g><title>U+F2A0E · hook with shoulder</title>
<path d="M30 600H450" stroke="#d8dacf"/>
<text x="30" y="624" fill="#242c27" font-family="Segoe UI,sans-serif" font-size="14">U+F2A0E · hook with shoulder</text>
<text x="55" y="647" fill="#687266" font-family="Segoe UI,sans-serif" font-size="12">Before</text>
<path fill="#242c27" transform="translate(55 770) scale(0.1 -0.1)" d="M110 300 135 447Q143 498 154.0 541.5Q165 585 184 618Q197 642 216.5 663.0Q236 684 265.0 697.5Q294 711 337 711Q368 711 389.0 701.5Q410 692 421.0 676.0Q432 660 432 638Q432 616 420.0 605.0Q408 594 392 594Q372 594 363.0 605.5Q354 617 352 633Q349 652 344.5 667.0Q340 682 322 682Q284 682 262.0 642.0Q240 602 229 538L190 300Q189 294 188.0 288.5Q187 283 186.0 277.0Q185 271 184.0 265.5Q183 260 182.0 254.0Q181 248 180.0 242.5Q179 237 178.0 231.0Q177 225 175.5 219.0Q174 213 173.0 207.5Q172 202 171.0 196.0Q170 190 168.5 184.5Q167 179 166.0 173.0Q165 167 163.5 161.5Q162 156 161 150L129 0H44L76 150Q77 155 78.0 159.5Q79 164 80.0 168.5Q81 173 82.0 178.0Q83 183 84.0 187.5Q85 192 86.5 197.0Q88 202 89.0 206.5Q90 211 91.5 215.5Q93 220 94.0 225.0Q95 230 96.0 234.5Q97 239 98.5 243.5Q100 248 101.0 253.0Q102 258 103.0 262.5Q104 267 105.0 272.0Q106 277 107.0 281.5Q108 286 108.5 290.5Q109 295 110 300ZM144 90 183 249Q192 267 205.0 295.5Q218 324 234.5 355.5Q251 387 270.5 415.5Q290 444 313.0 461.5Q336 479 361 479Q384 479 400.0 464.5Q416 450 416 421Q416 388 399.5 373.0Q383 358 363 358Q347 358 337.5 367.5Q328 377 324.0 386.0Q320 395 318 395Q303 395 283.0 370.5Q263 346 242.0 307.5Q221 269 201.5 226.5Q182 184 167.0 147.0Q152 110 144 90Z"/>
<path fill="#242c27" transform="translate(55 825) scale(0.024 -0.024)" d="M110 300 135 447Q143 498 154.0 541.5Q165 585 184 618Q197 642 216.5 663.0Q236 684 265.0 697.5Q294 711 337 711Q368 711 389.0 701.5Q410 692 421.0 676.0Q432 660 432 638Q432 616 420.0 605.0Q408 594 392 594Q372 594 363.0 605.5Q354 617 352 633Q349 652 344.5 667.0Q340 682 322 682Q284 682 262.0 642.0Q240 602 229 538L190 300Q189 294 188.0 288.5Q187 283 186.0 277.0Q185 271 184.0 265.5Q183 260 182.0 254.0Q181 248 180.0 242.5Q179 237 178.0 231.0Q177 225 175.5 219.0Q174 213 173.0 207.5Q172 202 171.0 196.0Q170 190 168.5 184.5Q167 179 166.0 173.0Q165 167 163.5 161.5Q162 156 161 150L129 0H44L76 150Q77 155 78.0 159.5Q79 164 80.0 168.5Q81 173 82.0 178.0Q83 183 84.0 187.5Q85 192 86.5 197.0Q88 202 89.0 206.5Q90 211 91.5 215.5Q93 220 94.0 225.0Q95 230 96.0 234.5Q97 239 98.5 243.5Q100 248 101.0 253.0Q102 258 103.0 262.5Q104 267 105.0 272.0Q106 277 107.0 281.5Q108 286 108.5 290.5Q109 295 110 300ZM144 90 183 249Q192 267 205.0 295.5Q218 324 234.5 355.5Q251 387 270.5 415.5Q290 444 313.0 461.5Q336 479 361 479Q384 479 400.0 464.5Q416 450 416 421Q416 388 399.5 373.0Q383 358 363 358Q347 358 337.5 367.5Q328 377 324.0 386.0Q320 395 318 395Q303 395 283.0 370.5Q263 346 242.0 307.5Q221 269 201.5 226.5Q182 184 167.0 147.0Q152 110 144 90Z"/>
<text x="265" y="647" fill="#687266" font-family="Segoe UI,sans-serif" font-size="12">After</text>
<path fill="#242c27" transform="translate(265 770) scale(0.1 -0.1)" d="M110 300 142 447Q153 498 166.0 541.5Q179 585 199 618Q214 642 234.5 663.0Q255 684 284.5 697.5Q314 711 357 711Q388 711 408.5 701.5Q429 692 439.5 676.0Q450 660 448 638Q447 616 434.5 605.0Q422 594 406 594Q386 594 377.5 605.5Q369 617 368 633Q366 652 362.5 667.0Q359 682 341 682Q303 682 279.0 642.0Q255 602 241 538L190 300Q189 294 187.5 287.5Q186 281 185.0 275.0Q184 269 182.5 262.5Q181 256 180.0 250.0Q179 244 178.0 237.5Q177 231 175.5 225.0Q174 219 173.0 212.5Q172 206 171.0 200.0Q170 194 168.5 187.5Q167 181 166.0 175.0Q165 169 163.5 162.5Q162 156 161 150L128 0H43L75 150Q77 156 78.0 162.5Q79 169 80.5 175.0Q82 181 83.5 187.5Q85 194 86.5 200.0Q88 206 89.5 212.5Q91 219 92.5 225.0Q94 231 95.5 237.5Q97 244 98.5 250.0Q100 256 101.5 262.5Q103 269 104.5 275.0Q106 281 107.5 287.5Q109 294 110 300ZM144 90 183 249Q192 267 205.0 295.5Q218 324 234.5 355.5Q251 387 270.5 415.5Q290 444 313.0 461.5Q336 479 361 479Q384 479 400.0 464.5Q416 450 416 421Q416 388 399.5 373.0Q383 358 363 358Q347 358 337.5 367.5Q328 377 324.0 386.0Q320 395 318 395Q303 395 283.0 370.5Q263 346 242.0 307.5Q221 269 201.5 226.5Q182 184 167.0 147.0Q152 110 144 90Z"/>
<path fill="#242c27" transform="translate(265 825) scale(0.024 -0.024)" d="M110 300 142 447Q153 498 166.0 541.5Q179 585 199 618Q214 642 234.5 663.0Q255 684 284.5 697.5Q314 711 357 711Q388 711 408.5 701.5Q429 692 439.5 676.0Q450 660 448 638Q447 616 434.5 605.0Q422 594 406 594Q386 594 377.5 605.5Q369 617 368 633Q366 652 362.5 667.0Q359 682 341 682Q303 682 279.0 642.0Q255 602 241 538L190 300Q189 294 187.5 287.5Q186 281 185.0 275.0Q184 269 182.5 262.5Q181 256 180.0 250.0Q179 244 178.0 237.5Q177 231 175.5 225.0Q174 219 173.0 212.5Q172 206 171.0 200.0Q170 194 168.5 187.5Q167 181 166.0 175.0Q165 169 163.5 162.5Q162 156 161 150L128 0H43L75 150Q77 156 78.0 162.5Q79 169 80.5 175.0Q82 181 83.5 187.5Q85 194 86.5 200.0Q88 206 89.5 212.5Q91 219 92.5 225.0Q94 231 95.5 237.5Q97 244 98.5 250.0Q100 256 101.5 262.5Q103 269 104.5 275.0Q106 281 107.5 287.5Q109 294 110 300ZM144 90 183 249Q192 267 205.0 295.5Q218 324 234.5 355.5Q251 387 270.5 415.5Q290 444 313.0 461.5Q336 479 361 479Q384 479 400.0 464.5Q416 450 416 421Q416 388 399.5 373.0Q383 358 363 358Q347 358 337.5 367.5Q328 377 324.0 386.0Q320 395 318 395Q303 395 283.0 370.5Q263 346 242.0 307.5Q221 269 201.5 226.5Q182 184 167.0 147.0Q152 110 144 90Z"/>
</g>
<g><title>U+F2A0F · descender with shoulder</title>
<path d="M470 600H890" stroke="#d8dacf"/>
<text x="470" y="624" fill="#242c27" font-family="Segoe UI,sans-serif" font-size="14">U+F2A0F · descender with shoulder</text>
<text x="495" y="647" fill="#687266" font-family="Segoe UI,sans-serif" font-size="12">Before</text>
<path fill="#242c27" transform="translate(495 770) scale(0.1 -0.1)" d="M113 300 123 348Q126 362 129.0 379.5Q132 397 132 410Q132 424 126.0 432.0Q120 440 99 440Q91 440 79.5 439.0Q68 438 68 438V465L207 476H229L188 300Q187 295 185.5 290.5Q184 286 183.5 281.5Q183 277 182.0 272.0Q181 267 180.0 262.5Q179 258 178.0 253.0Q177 248 176.0 243.5Q175 239 174.5 234.5Q174 230 173.0 225.0Q172 220 171.5 215.5Q171 211 170.0 206.5Q169 202 168.0 197.0Q167 192 166.5 187.5Q166 183 165.0 178.0Q164 173 163.0 168.5Q162 164 161.0 159.5Q160 155 160 150L107 -101Q106 -108 104.5 -120.0Q103 -132 103 -143Q103 -160 123.5 -176.5Q144 -193 204 -193L197 -220H1L77 150Q78 155 79.0 159.5Q80 164 81.0 168.5Q82 173 83.0 178.0Q84 183 85.5 187.5Q87 192 88.0 197.0Q89 202 90.0 206.5Q91 211 92.5 215.5Q94 220 95.0 225.0Q96 230 97.0 234.5Q98 239 99.5 243.5Q101 248 102.0 253.0Q103 258 104.0 262.5Q105 267 106.5 272.0Q108 277 109.0 281.5Q110 286 111.0 290.5Q112 295 113 300ZM144 90 183 249Q192 267 205.0 295.5Q218 324 234.5 355.5Q251 387 270.5 415.5Q290 444 313.0 461.5Q336 479 361 479Q384 479 400.0 464.5Q416 450 416 421Q416 388 399.5 373.0Q383 358 363 358Q347 358 337.5 367.5Q328 377 324.0 386.0Q320 395 318 395Q303 395 283.0 370.5Q263 346 242.0 307.5Q221 269 201.5 226.5Q182 184 167.0 147.0Q152 110 144 90Z"/>
<path fill="#242c27" transform="translate(495 825) scale(0.024 -0.024)" d="M113 300 123 348Q126 362 129.0 379.5Q132 397 132 410Q132 424 126.0 432.0Q120 440 99 440Q91 440 79.5 439.0Q68 438 68 438V465L207 476H229L188 300Q187 295 185.5 290.5Q184 286 183.5 281.5Q183 277 182.0 272.0Q181 267 180.0 262.5Q179 258 178.0 253.0Q177 248 176.0 243.5Q175 239 174.5 234.5Q174 230 173.0 225.0Q172 220 171.5 215.5Q171 211 170.0 206.5Q169 202 168.0 197.0Q167 192 166.5 187.5Q166 183 165.0 178.0Q164 173 163.0 168.5Q162 164 161.0 159.5Q160 155 160 150L107 -101Q106 -108 104.5 -120.0Q103 -132 103 -143Q103 -160 123.5 -176.5Q144 -193 204 -193L197 -220H1L77 150Q78 155 79.0 159.5Q80 164 81.0 168.5Q82 173 83.0 178.0Q84 183 85.5 187.5Q87 192 88.0 197.0Q89 202 90.0 206.5Q91 211 92.5 215.5Q94 220 95.0 225.0Q96 230 97.0 234.5Q98 239 99.5 243.5Q101 248 102.0 253.0Q103 258 104.0 262.5Q105 267 106.5 272.0Q108 277 109.0 281.5Q110 286 111.0 290.5Q112 295 113 300ZM144 90 183 249Q192 267 205.0 295.5Q218 324 234.5 355.5Q251 387 270.5 415.5Q290 444 313.0 461.5Q336 479 361 479Q384 479 400.0 464.5Q416 450 416 421Q416 388 399.5 373.0Q383 358 363 358Q347 358 337.5 367.5Q328 377 324.0 386.0Q320 395 318 395Q303 395 283.0 370.5Q263 346 242.0 307.5Q221 269 201.5 226.5Q182 184 167.0 147.0Q152 110 144 90Z"/>
<text x="705" y="647" fill="#687266" font-family="Segoe UI,sans-serif" font-size="12">After</text>
<path fill="#242c27" transform="translate(705 770) scale(0.1 -0.1)" d="M113 300 122 348Q125 362 127.5 379.5Q130 397 130 410Q130 424 124.0 432.0Q118 440 97 440Q89 440 77.5 439.0Q66 438 66 438L65 465L204 476H226L188 300Q187 295 186.0 290.5Q185 286 184.0 281.5Q183 277 182.0 272.0Q181 267 180.0 262.5Q179 258 178.5 253.0Q178 248 177.0 243.5Q176 239 175.5 234.5Q175 230 174.0 225.0Q173 220 172.0 215.5Q171 211 170.5 206.5Q170 202 169.0 197.0Q168 192 167.5 187.5Q167 183 166.0 178.0Q165 173 164.0 168.5Q163 164 162.0 159.5Q161 155 160 150L108 -101Q107 -108 105.5 -120.0Q104 -132 104 -143Q104 -160 124.5 -176.5Q145 -193 205 -193L198 -220H2L78 150Q79 155 80.0 159.5Q81 164 82.0 168.5Q83 173 84.0 178.0Q85 183 86.0 187.5Q87 192 88.5 197.0Q90 202 91.0 206.5Q92 211 93.0 215.5Q94 220 95.5 225.0Q97 230 98.0 234.5Q99 239 100.0 243.5Q101 248 102.5 253.0Q104 258 105.0 262.5Q106 267 107.0 272.0Q108 277 109.0 281.5Q110 286 111.0 290.5Q112 295 113 300ZM144 90 183 249Q192 267 205.0 295.5Q218 324 234.5 355.5Q251 387 270.5 415.5Q290 444 313.0 461.5Q336 479 361 479Q384 479 400.0 464.5Q416 450 416 421Q416 388 399.5 373.0Q383 358 363 358Q347 358 337.5 367.5Q328 377 324.0 386.0Q320 395 318 395Q303 395 283.0 370.5Q263 346 242.0 307.5Q221 269 201.5 226.5Q182 184 167.0 147.0Q152 110 144 90Z"/>
<path fill="#242c27" transform="translate(705 825) scale(0.024 -0.024)" d="M113 300 122 348Q125 362 127.5 379.5Q130 397 130 410Q130 424 124.0 432.0Q118 440 97 440Q89 440 77.5 439.0Q66 438 66 438L65 465L204 476H226L188 300Q187 295 186.0 290.5Q185 286 184.0 281.5Q183 277 182.0 272.0Q181 267 180.0 262.5Q179 258 178.5 253.0Q178 248 177.0 243.5Q176 239 175.5 234.5Q175 230 174.0 225.0Q173 220 172.0 215.5Q171 211 170.5 206.5Q170 202 169.0 197.0Q168 192 167.5 187.5Q167 183 166.0 178.0Q165 173 164.0 168.5Q163 164 162.0 159.5Q161 155 160 150L108 -101Q107 -108 105.5 -120.0Q104 -132 104 -143Q104 -160 124.5 -176.5Q145 -193 205 -193L198 -220H2L78 150Q79 155 80.0 159.5Q81 164 82.0 168.5Q83 173 84.0 178.0Q85 183 86.0 187.5Q87 192 88.5 197.0Q90 202 91.0 206.5Q92 211 93.0 215.5Q94 220 95.5 225.0Q97 230 98.0 234.5Q99 239 100.0 243.5Q101 248 102.5 253.0Q104 258 105.0 262.5Q106 267 107.0 272.0Q108 277 109.0 281.5Q110 286 111.0 290.5Q112 295 113 300ZM144 90 183 249Q192 267 205.0 295.5Q218 324 234.5 355.5Q251 387 270.5 415.5Q290 444 313.0 461.5Q336 479 361 479Q384 479 400.0 464.5Q416 450 416 421Q416 388 399.5 373.0Q383 358 363 358Q347 358 337.5 367.5Q328 377 324.0 386.0Q320 395 318 395Q303 395 283.0 370.5Q263 346 242.0 307.5Q221 269 201.5 226.5Q182 184 167.0 147.0Q152 110 144 90Z"/>
</g>
<g><title>U+F2A10 · long stem with shoulder</title>
<path d="M910 600H1330" stroke="#d8dacf"/>
<text x="910" y="624" fill="#242c27" font-family="Segoe UI,sans-serif" font-size="14">U+F2A10 · long stem with shoulder</text>
<text x="935" y="647" fill="#687266" font-family="Segoe UI,sans-serif" font-size="12">Before</text>
<path fill="#242c27" transform="translate(935 770) scale(0.1 -0.1)" d="M109 300 174 608Q174 608 175.5 618.0Q177 628 177 640Q177 650 171.5 660.0Q166 670 146 670Q133 670 122.5 669.0Q112 668 112 668V694L250 705H272L191 300Q190 293 188.5 285.5Q187 278 185.5 270.5Q184 263 182.0 255.5Q180 248 178.5 240.5Q177 233 175.5 225.5Q174 218 172.5 210.5Q171 203 169.0 195.5Q167 188 165.5 180.5Q164 173 162.5 165.5Q161 158 160 150L107 -101Q106 -108 104.5 -120.0Q103 -132 103 -143Q103 -160 123.5 -176.5Q144 -193 204 -193L197 -220H1L77 150Q79 158 80.5 166.5Q82 175 84.0 183.5Q86 192 87.5 200.0Q89 208 91.0 216.5Q93 225 95.0 233.5Q97 242 98.5 250.0Q100 258 102.0 266.5Q104 275 105.5 283.5Q107 292 109 300ZM144 90 183 249Q192 267 205.0 295.5Q218 324 234.5 355.5Q251 387 270.5 415.5Q290 444 313.0 461.5Q336 479 361 479Q384 479 400.0 464.5Q416 450 416 421Q416 388 399.5 373.0Q383 358 363 358Q347 358 337.5 367.5Q328 377 324.0 386.0Q320 395 318 395Q303 395 283.0 370.5Q263 346 242.0 307.5Q221 269 201.5 226.5Q182 184 167.0 147.0Q152 110 144 90Z"/>
<path fill="#242c27" transform="translate(935 825) scale(0.024 -0.024)" d="M109 300 174 608Q174 608 175.5 618.0Q177 628 177 640Q177 650 171.5 660.0Q166 670 146 670Q133 670 122.5 669.0Q112 668 112 668V694L250 705H272L191 300Q190 293 188.5 285.5Q187 278 185.5 270.5Q184 263 182.0 255.5Q180 248 178.5 240.5Q177 233 175.5 225.5Q174 218 172.5 210.5Q171 203 169.0 195.5Q167 188 165.5 180.5Q164 173 162.5 165.5Q161 158 160 150L107 -101Q106 -108 104.5 -120.0Q103 -132 103 -143Q103 -160 123.5 -176.5Q144 -193 204 -193L197 -220H1L77 150Q79 158 80.5 166.5Q82 175 84.0 183.5Q86 192 87.5 200.0Q89 208 91.0 216.5Q93 225 95.0 233.5Q97 242 98.5 250.0Q100 258 102.0 266.5Q104 275 105.5 283.5Q107 292 109 300ZM144 90 183 249Q192 267 205.0 295.5Q218 324 234.5 355.5Q251 387 270.5 415.5Q290 444 313.0 461.5Q336 479 361 479Q384 479 400.0 464.5Q416 450 416 421Q416 388 399.5 373.0Q383 358 363 358Q347 358 337.5 367.5Q328 377 324.0 386.0Q320 395 318 395Q303 395 283.0 370.5Q263 346 242.0 307.5Q221 269 201.5 226.5Q182 184 167.0 147.0Q152 110 144 90Z"/>
<text x="1145" y="647" fill="#687266" font-family="Segoe UI,sans-serif" font-size="12">After</text>
<path fill="#242c27" transform="translate(1145 770) scale(0.1 -0.1)" d="M109 300 175 608Q175 608 176.5 618.0Q178 628 178 640Q178 650 172.5 660.0Q167 670 147 670Q134 670 123.5 669.0Q113 668 113 668V694L251 705H273L191 300Q188 285 185.0 270.0Q182 255 179.0 240.0Q176 225 173.0 210.0Q170 195 166.5 180.0Q163 165 160 150L108 -101Q107 -108 105.5 -120.0Q104 -132 104 -143Q104 -160 124.5 -176.5Q145 -193 205 -193L198 -220H2L78 150Q81 165 84.0 180.0Q87 195 90.0 210.0Q93 225 96.5 240.0Q100 255 103.0 270.0Q106 285 109 300ZM144 90 183 249Q192 267 205.0 295.5Q218 324 234.5 355.5Q251 387 270.5 415.5Q290 444 313.0 461.5Q336 479 361 479Q384 479 400.0 464.5Q416 450 416 421Q416 388 399.5 373.0Q383 358 363 358Q347 358 337.5 367.5Q328 377 324.0 386.0Q320 395 318 395Q303 395 283.0 370.5Q263 346 242.0 307.5Q221 269 201.5 226.5Q182 184 167.0 147.0Q152 110 144 90Z"/>
<path fill="#242c27" transform="translate(1145 825) scale(0.024 -0.024)" d="M109 300 175 608Q175 608 176.5 618.0Q178 628 178 640Q178 650 172.5 660.0Q167 670 147 670Q134 670 123.5 669.0Q113 668 113 668V694L251 705H273L191 300Q188 285 185.0 270.0Q182 255 179.0 240.0Q176 225 173.0 210.0Q170 195 166.5 180.0Q163 165 160 150L108 -101Q107 -108 105.5 -120.0Q104 -132 104 -143Q104 -160 124.5 -176.5Q145 -193 205 -193L198 -220H2L78 150Q81 165 84.0 180.0Q87 195 90.0 210.0Q93 225 96.5 240.0Q100 255 103.0 270.0Q106 285 109 300ZM144 90 183 249Q192 267 205.0 295.5Q218 324 234.5 355.5Q251 387 270.5 415.5Q290 444 313.0 461.5Q336 479 361 479Q384 479 400.0 464.5Q416 450 416 421Q416 388 399.5 373.0Q383 358 363 358Q347 358 337.5 367.5Q328 377 324.0 386.0Q320 395 318 395Q303 395 283.0 370.5Q263 346 242.0 307.5Q221 269 201.5 226.5Q182 184 167.0 147.0Q152 110 144 90Z"/>
</g>
<g><title>U+F2A11 · long hook with shoulder</title>
<path d="M30 850H450" stroke="#d8dacf"/>
<text x="30" y="874" fill="#242c27" font-family="Segoe UI,sans-serif" font-size="14">U+F2A11 · long hook with shoulder</text>
<text x="55" y="897" fill="#687266" font-family="Segoe UI,sans-serif" font-size="12">Before</text>
<path fill="#242c27" transform="translate(55 1020) scale(0.1 -0.1)" d="M110 300 135 447Q143 498 154.0 541.5Q165 585 184 618Q197 642 216.5 663.0Q236 684 265.0 697.5Q294 711 337 711Q368 711 389.0 701.5Q410 692 421.0 676.0Q432 660 432 638Q432 616 420.0 605.0Q408 594 392 594Q372 594 363.0 605.5Q354 617 352 633Q349 652 344.5 667.0Q340 682 322 682Q284 682 262.0 642.0Q240 602 229 538L190 300Q189 295 188.5 290.5Q188 286 187.0 281.5Q186 277 185.0 272.0Q184 267 183.0 262.5Q182 258 181.5 253.0Q181 248 180.0 243.5Q179 239 178.0 234.5Q177 230 176.0 225.0Q175 220 174.0 215.5Q173 211 172.0 206.5Q171 202 170.0 197.0Q169 192 168.0 187.5Q167 183 165.5 178.0Q164 173 163.0 168.5Q162 164 161.0 159.5Q160 155 160 150L107 -101Q106 -108 104.5 -120.0Q103 -132 103 -143Q103 -160 123.5 -176.5Q144 -193 204 -193L197 -220H1L77 150Q78 155 79.0 160.0Q80 165 81.5 170.0Q83 175 84.0 180.0Q85 185 86.0 190.0Q87 195 88.5 200.0Q90 205 91.0 210.0Q92 215 93.0 220.0Q94 225 95.5 230.0Q97 235 98.0 240.0Q99 245 100.0 250.0Q101 255 102.5 260.0Q104 265 105.0 270.0Q106 275 107.0 280.0Q108 285 108.5 290.0Q109 295 110 300ZM144 90 183 249Q192 267 205.0 295.5Q218 324 234.5 355.5Q251 387 270.5 415.5Q290 444 313.0 461.5Q336 479 361 479Q384 479 400.0 464.5Q416 450 416 421Q416 388 399.5 373.0Q383 358 363 358Q347 358 337.5 367.5Q328 377 324.0 386.0Q320 395 318 395Q303 395 283.0 370.5Q263 346 242.0 307.5Q221 269 201.5 226.5Q182 184 167.0 147.0Q152 110 144 90Z"/>
<path fill="#242c27" transform="translate(55 1075) scale(0.024 -0.024)" d="M110 300 135 447Q143 498 154.0 541.5Q165 585 184 618Q197 642 216.5 663.0Q236 684 265.0 697.5Q294 711 337 711Q368 711 389.0 701.5Q410 692 421.0 676.0Q432 660 432 638Q432 616 420.0 605.0Q408 594 392 594Q372 594 363.0 605.5Q354 617 352 633Q349 652 344.5 667.0Q340 682 322 682Q284 682 262.0 642.0Q240 602 229 538L190 300Q189 295 188.5 290.5Q188 286 187.0 281.5Q186 277 185.0 272.0Q184 267 183.0 262.5Q182 258 181.5 253.0Q181 248 180.0 243.5Q179 239 178.0 234.5Q177 230 176.0 225.0Q175 220 174.0 215.5Q173 211 172.0 206.5Q171 202 170.0 197.0Q169 192 168.0 187.5Q167 183 165.5 178.0Q164 173 163.0 168.5Q162 164 161.0 159.5Q160 155 160 150L107 -101Q106 -108 104.5 -120.0Q103 -132 103 -143Q103 -160 123.5 -176.5Q144 -193 204 -193L197 -220H1L77 150Q78 155 79.0 160.0Q80 165 81.5 170.0Q83 175 84.0 180.0Q85 185 86.0 190.0Q87 195 88.5 200.0Q90 205 91.0 210.0Q92 215 93.0 220.0Q94 225 95.5 230.0Q97 235 98.0 240.0Q99 245 100.0 250.0Q101 255 102.5 260.0Q104 265 105.0 270.0Q106 275 107.0 280.0Q108 285 108.5 290.0Q109 295 110 300ZM144 90 183 249Q192 267 205.0 295.5Q218 324 234.5 355.5Q251 387 270.5 415.5Q290 444 313.0 461.5Q336 479 361 479Q384 479 400.0 464.5Q416 450 416 421Q416 388 399.5 373.0Q383 358 363 358Q347 358 337.5 367.5Q328 377 324.0 386.0Q320 395 318 395Q303 395 283.0 370.5Q263 346 242.0 307.5Q221 269 201.5 226.5Q182 184 167.0 147.0Q152 110 144 90Z"/>
<text x="265" y="897" fill="#687266" font-family="Segoe UI,sans-serif" font-size="12">After</text>
<path fill="#242c27" transform="translate(265 1020) scale(0.1 -0.1)" d="M110 300 141 447Q151 498 164.0 541.5Q177 585 197 618Q211 642 231.5 663.0Q252 684 281.5 697.5Q311 711 354 711Q385 711 405.5 701.5Q426 692 436.5 676.0Q447 660 446 638Q445 616 432.5 605.0Q420 594 404 594Q384 594 375.5 605.5Q367 617 366 633Q364 652 360.0 667.0Q356 682 338 682Q300 682 276.5 642.0Q253 602 239 538L190 300Q189 293 187.5 285.5Q186 278 184.5 270.5Q183 263 181.5 255.5Q180 248 178.5 240.5Q177 233 175.5 225.5Q174 218 172.5 210.5Q171 203 169.5 195.5Q168 188 166.5 180.5Q165 173 163.5 165.5Q162 158 160 150L108 -101Q107 -108 105.5 -120.0Q104 -132 104 -143Q104 -160 124.5 -176.5Q145 -193 205 -193L198 -220H2L78 150Q80 158 81.5 165.5Q83 173 84.5 180.5Q86 188 87.5 195.5Q89 203 90.5 210.5Q92 218 94.0 225.5Q96 233 97.5 240.5Q99 248 100.5 255.5Q102 263 104.0 270.5Q106 278 107.5 285.5Q109 293 110 300ZM144 90 183 249Q192 267 205.0 295.5Q218 324 234.5 355.5Q251 387 270.5 415.5Q290 444 313.0 461.5Q336 479 361 479Q384 479 400.0 464.5Q416 450 416 421Q416 388 399.5 373.0Q383 358 363 358Q347 358 337.5 367.5Q328 377 324.0 386.0Q320 395 318 395Q303 395 283.0 370.5Q263 346 242.0 307.5Q221 269 201.5 226.5Q182 184 167.0 147.0Q152 110 144 90Z"/>
<path fill="#242c27" transform="translate(265 1075) scale(0.024 -0.024)" d="M110 300 141 447Q151 498 164.0 541.5Q177 585 197 618Q211 642 231.5 663.0Q252 684 281.5 697.5Q311 711 354 711Q385 711 405.5 701.5Q426 692 436.5 676.0Q447 660 446 638Q445 616 432.5 605.0Q420 594 404 594Q384 594 375.5 605.5Q367 617 366 633Q364 652 360.0 667.0Q356 682 338 682Q300 682 276.5 642.0Q253 602 239 538L190 300Q189 293 187.5 285.5Q186 278 184.5 270.5Q183 263 181.5 255.5Q180 248 178.5 240.5Q177 233 175.5 225.5Q174 218 172.5 210.5Q171 203 169.5 195.5Q168 188 166.5 180.5Q165 173 163.5 165.5Q162 158 160 150L108 -101Q107 -108 105.5 -120.0Q104 -132 104 -143Q104 -160 124.5 -176.5Q145 -193 205 -193L198 -220H2L78 150Q80 158 81.5 165.5Q83 173 84.5 180.5Q86 188 87.5 195.5Q89 203 90.5 210.5Q92 218 94.0 225.5Q96 233 97.5 240.5Q99 248 100.5 255.5Q102 263 104.0 270.5Q106 278 107.5 285.5Q109 293 110 300ZM144 90 183 249Q192 267 205.0 295.5Q218 324 234.5 355.5Q251 387 270.5 415.5Q290 444 313.0 461.5Q336 479 361 479Q384 479 400.0 464.5Q416 450 416 421Q416 388 399.5 373.0Q383 358 363 358Q347 358 337.5 367.5Q328 377 324.0 386.0Q320 395 318 395Q303 395 283.0 370.5Q263 346 242.0 307.5Q221 269 201.5 226.5Q182 184 167.0 147.0Q152 110 144 90Z"/>
</g>
<g><title>U+F2A13 · hip with descender</title>
<path d="M470 850H890" stroke="#d8dacf"/>
<text x="470" y="874" fill="#242c27" font-family="Segoe UI,sans-serif" font-size="14">U+F2A13 · hip with descender</text>
<text x="495" y="897" fill="#687266" font-family="Segoe UI,sans-serif" font-size="12">Before</text>
<path fill="#242c27" transform="translate(495 1020) scale(0.1 -0.1)" d="M220 300 257 473H342L305 300Q304 293 302.5 286.5Q301 280 299.5 273.0Q298 266 296.5 259.0Q295 252 293.5 245.5Q292 239 290.0 232.0Q288 225 286.5 218.0Q285 211 283.5 204.5Q282 198 280.5 191.0Q279 184 277.5 177.0Q276 170 274.5 163.5Q273 157 272 150L219 -101Q218 -108 216.5 -120.0Q215 -132 215 -143Q215 -160 235.5 -176.5Q256 -193 316 -193L309 -220H113L189 150Q191 157 192.5 163.5Q194 170 195.0 177.0Q196 184 197.5 191.0Q199 198 200.5 204.5Q202 211 203.0 218.0Q204 225 205.5 232.0Q207 239 208.5 245.5Q210 252 211.0 259.0Q212 266 213.5 273.0Q215 280 216.5 286.5Q218 293 220 300ZM30 -10Q7 -10 -9.0 4.5Q-25 19 -25 48Q-25 81 -8.0 96.0Q9 111 28 111Q44 111 53.5 102.0Q63 93 67.5 83.5Q72 74 73 74Q88 74 107.5 98.5Q127 123 147.0 160.0Q167 197 185.0 235.5Q203 274 214.5 302.5Q226 331 229 338L208 224Q199 206 186.0 177.5Q173 149 156.5 116.5Q140 84 120.5 55.0Q101 26 78.5 8.0Q56 -10 30 -10Z"/>
<path fill="#242c27" transform="translate(495 1075) scale(0.024 -0.024)" d="M220 300 257 473H342L305 300Q304 293 302.5 286.5Q301 280 299.5 273.0Q298 266 296.5 259.0Q295 252 293.5 245.5Q292 239 290.0 232.0Q288 225 286.5 218.0Q285 211 283.5 204.5Q282 198 280.5 191.0Q279 184 277.5 177.0Q276 170 274.5 163.5Q273 157 272 150L219 -101Q218 -108 216.5 -120.0Q215 -132 215 -143Q215 -160 235.5 -176.5Q256 -193 316 -193L309 -220H113L189 150Q191 157 192.5 163.5Q194 170 195.0 177.0Q196 184 197.5 191.0Q199 198 200.5 204.5Q202 211 203.0 218.0Q204 225 205.5 232.0Q207 239 208.5 245.5Q210 252 211.0 259.0Q212 266 213.5 273.0Q215 280 216.5 286.5Q218 293 220 300ZM30 -10Q7 -10 -9.0 4.5Q-25 19 -25 48Q-25 81 -8.0 96.0Q9 111 28 111Q44 111 53.5 102.0Q63 93 67.5 83.5Q72 74 73 74Q88 74 107.5 98.5Q127 123 147.0 160.0Q167 197 185.0 235.5Q203 274 214.5 302.5Q226 331 229 338L208 224Q199 206 186.0 177.5Q173 149 156.5 116.5Q140 84 120.5 55.0Q101 26 78.5 8.0Q56 -10 30 -10Z"/>
<text x="705" y="897" fill="#687266" font-family="Segoe UI,sans-serif" font-size="12">After</text>
<path fill="#242c27" transform="translate(705 1020) scale(0.1 -0.1)" d="M220 300 256 473H341L305 300Q304 293 302.5 286.5Q301 280 299.5 273.0Q298 266 296.5 259.0Q295 252 293.5 245.5Q292 239 290.5 232.0Q289 225 287.5 218.0Q286 211 284.5 204.5Q283 198 281.5 191.0Q280 184 278.5 177.0Q277 170 275.5 163.5Q274 157 272 150L220 -101Q219 -108 217.5 -120.0Q216 -132 216 -143Q216 -160 236.5 -176.5Q257 -193 317 -193L310 -220H114L190 150Q192 157 193.0 163.5Q194 170 195.5 177.0Q197 184 198.5 191.0Q200 198 201.0 204.5Q202 211 203.5 218.0Q205 225 206.0 232.0Q207 239 208.5 245.5Q210 252 211.5 259.0Q213 266 214.0 273.0Q215 280 216.5 286.5Q218 293 220 300ZM30 -10Q7 -10 -9.0 4.5Q-25 19 -25 48Q-25 81 -8.0 96.0Q9 111 28 111Q44 111 53.5 102.0Q63 93 67.5 83.5Q72 74 73 74Q88 74 107.5 98.5Q127 123 147.0 160.0Q167 197 185.0 235.5Q203 274 214.5 302.5Q226 331 229 338L208 224Q199 206 186.0 177.5Q173 149 156.5 116.5Q140 84 120.5 55.0Q101 26 78.5 8.0Q56 -10 30 -10Z"/>
<path fill="#242c27" transform="translate(705 1075) scale(0.024 -0.024)" d="M220 300 256 473H341L305 300Q304 293 302.5 286.5Q301 280 299.5 273.0Q298 266 296.5 259.0Q295 252 293.5 245.5Q292 239 290.5 232.0Q289 225 287.5 218.0Q286 211 284.5 204.5Q283 198 281.5 191.0Q280 184 278.5 177.0Q277 170 275.5 163.5Q274 157 272 150L220 -101Q219 -108 217.5 -120.0Q216 -132 216 -143Q216 -160 236.5 -176.5Q257 -193 317 -193L310 -220H114L190 150Q192 157 193.0 163.5Q194 170 195.5 177.0Q197 184 198.5 191.0Q200 198 201.0 204.5Q202 211 203.5 218.0Q205 225 206.0 232.0Q207 239 208.5 245.5Q210 252 211.5 259.0Q213 266 214.0 273.0Q215 280 216.5 286.5Q218 293 220 300ZM30 -10Q7 -10 -9.0 4.5Q-25 19 -25 48Q-25 81 -8.0 96.0Q9 111 28 111Q44 111 53.5 102.0Q63 93 67.5 83.5Q72 74 73 74Q88 74 107.5 98.5Q127 123 147.0 160.0Q167 197 185.0 235.5Q203 274 214.5 302.5Q226 331 229 338L208 224Q199 206 186.0 177.5Q173 149 156.5 116.5Q140 84 120.5 55.0Q101 26 78.5 8.0Q56 -10 30 -10Z"/>
</g>
<g><title>U+F2A14 · hip with tail</title>
<path d="M910 850H1330" stroke="#d8dacf"/>
<text x="910" y="874" fill="#242c27" font-family="Segoe UI,sans-serif" font-size="14">U+F2A14 · hip with tail</text>
<text x="935" y="897" fill="#687266" font-family="Segoe UI,sans-serif" font-size="12">Before</text>
<path fill="#242c27" transform="translate(935 1020) scale(0.1 -0.1)" d="M220 300 257 473H342L305 300Q304 292 302.0 284.5Q300 277 298.5 269.0Q297 261 295.0 253.0Q293 245 291.5 237.5Q290 230 288.5 222.0Q287 214 285.0 206.0Q283 198 281.5 190.5Q280 183 278.0 175.0Q276 167 274.5 159.5Q273 152 271.0 144.0Q269 136 267.5 128.0Q266 120 264.5 112.5Q263 105 261.0 97.0Q259 89 257.5 81.0Q256 73 254.5 65.5Q253 58 251 50L242 9Q222 -88 184.5 -138.5Q147 -189 97.0 -207.0Q47 -225 -11 -225Q-44 -225 -70.5 -219.0Q-97 -213 -115.0 -202.5Q-133 -192 -143.0 -178.0Q-153 -164 -153 -147Q-153 -125 -140.0 -112.0Q-127 -99 -105 -99Q-86 -99 -74.5 -113.0Q-63 -127 -52.0 -145.5Q-41 -164 -25.5 -178.0Q-10 -192 16 -192Q56 -192 81.0 -175.5Q106 -159 123.0 -120.0Q140 -81 153 -16L168 50Q169 57 170.5 64.5Q172 72 173.5 79.5Q175 87 176.5 94.0Q178 101 179.5 108.5Q181 116 182.5 123.5Q184 131 185.5 138.5Q187 146 188.5 153.0Q190 160 191.5 167.5Q193 175 194.5 182.5Q196 190 198.0 197.0Q200 204 201.5 211.5Q203 219 204.5 226.5Q206 234 207.5 241.5Q209 249 210.5 256.0Q212 263 213.5 270.5Q215 278 216.5 285.5Q218 293 220 300ZM30 -10Q7 -10 -9.0 4.5Q-25 19 -25 48Q-25 81 -8.0 96.0Q9 111 28 111Q44 111 53.5 102.0Q63 93 67.5 83.5Q72 74 73 74Q88 74 107.5 98.5Q127 123 147.0 160.0Q167 197 185.0 235.5Q203 274 214.5 302.5Q226 331 229 338L208 224Q199 206 186.0 177.5Q173 149 156.5 116.5Q140 84 120.5 55.0Q101 26 78.5 8.0Q56 -10 30 -10Z"/>
<path fill="#242c27" transform="translate(935 1075) scale(0.024 -0.024)" d="M220 300 257 473H342L305 300Q304 292 302.0 284.5Q300 277 298.5 269.0Q297 261 295.0 253.0Q293 245 291.5 237.5Q290 230 288.5 222.0Q287 214 285.0 206.0Q283 198 281.5 190.5Q280 183 278.0 175.0Q276 167 274.5 159.5Q273 152 271.0 144.0Q269 136 267.5 128.0Q266 120 264.5 112.5Q263 105 261.0 97.0Q259 89 257.5 81.0Q256 73 254.5 65.5Q253 58 251 50L242 9Q222 -88 184.5 -138.5Q147 -189 97.0 -207.0Q47 -225 -11 -225Q-44 -225 -70.5 -219.0Q-97 -213 -115.0 -202.5Q-133 -192 -143.0 -178.0Q-153 -164 -153 -147Q-153 -125 -140.0 -112.0Q-127 -99 -105 -99Q-86 -99 -74.5 -113.0Q-63 -127 -52.0 -145.5Q-41 -164 -25.5 -178.0Q-10 -192 16 -192Q56 -192 81.0 -175.5Q106 -159 123.0 -120.0Q140 -81 153 -16L168 50Q169 57 170.5 64.5Q172 72 173.5 79.5Q175 87 176.5 94.0Q178 101 179.5 108.5Q181 116 182.5 123.5Q184 131 185.5 138.5Q187 146 188.5 153.0Q190 160 191.5 167.5Q193 175 194.5 182.5Q196 190 198.0 197.0Q200 204 201.5 211.5Q203 219 204.5 226.5Q206 234 207.5 241.5Q209 249 210.5 256.0Q212 263 213.5 270.5Q215 278 216.5 285.5Q218 293 220 300ZM30 -10Q7 -10 -9.0 4.5Q-25 19 -25 48Q-25 81 -8.0 96.0Q9 111 28 111Q44 111 53.5 102.0Q63 93 67.5 83.5Q72 74 73 74Q88 74 107.5 98.5Q127 123 147.0 160.0Q167 197 185.0 235.5Q203 274 214.5 302.5Q226 331 229 338L208 224Q199 206 186.0 177.5Q173 149 156.5 116.5Q140 84 120.5 55.0Q101 26 78.5 8.0Q56 -10 30 -10Z"/>
<text x="1145" y="897" fill="#687266" font-family="Segoe UI,sans-serif" font-size="12">After</text>
<path fill="#242c27" transform="translate(1145 1020) scale(0.1 -0.1)" d="M220 300 256 473H341L305 300Q304 293 302.5 285.5Q301 278 299.0 270.5Q297 263 295.5 256.0Q294 249 292.5 241.5Q291 234 289.5 226.5Q288 219 286.5 211.5Q285 204 283.5 197.0Q282 190 280.0 182.5Q278 175 276.5 167.5Q275 160 273.5 153.0Q272 146 270.5 138.5Q269 131 267.0 123.5Q265 116 263.5 108.5Q262 101 260.5 94.0Q259 87 257.5 79.5Q256 72 254.5 64.5Q253 57 251 50L243 9Q223 -88 185.5 -138.5Q148 -189 98.0 -207.0Q48 -225 -10 -225Q-43 -225 -69.5 -219.0Q-96 -213 -114.0 -202.5Q-132 -192 -142.0 -178.0Q-152 -164 -152 -147Q-152 -125 -139.0 -112.0Q-126 -99 -104 -99Q-85 -99 -73.5 -113.0Q-62 -127 -51.0 -145.5Q-40 -164 -24.5 -178.0Q-9 -192 17 -192Q57 -192 82.0 -175.5Q107 -159 124.0 -120.0Q141 -81 154 -16L168 50Q170 57 171.5 64.5Q173 72 174.5 79.5Q176 87 177.5 94.0Q179 101 180.5 108.5Q182 116 183.5 123.5Q185 131 186.5 138.5Q188 146 189.5 153.0Q191 160 192.5 167.5Q194 175 195.5 182.5Q197 190 198.5 197.0Q200 204 201.5 211.5Q203 219 204.5 226.5Q206 234 207.5 241.5Q209 249 210.5 256.0Q212 263 213.5 270.5Q215 278 216.5 285.5Q218 293 220 300ZM30 -10Q7 -10 -9.0 4.5Q-25 19 -25 48Q-25 81 -8.0 96.0Q9 111 28 111Q44 111 53.5 102.0Q63 93 67.5 83.5Q72 74 73 74Q88 74 107.5 98.5Q127 123 147.0 160.0Q167 197 185.0 235.5Q203 274 214.5 302.5Q226 331 229 338L208 224Q199 206 186.0 177.5Q173 149 156.5 116.5Q140 84 120.5 55.0Q101 26 78.5 8.0Q56 -10 30 -10Z"/>
<path fill="#242c27" transform="translate(1145 1075) scale(0.024 -0.024)" d="M220 300 256 473H341L305 300Q304 293 302.5 285.5Q301 278 299.0 270.5Q297 263 295.5 256.0Q294 249 292.5 241.5Q291 234 289.5 226.5Q288 219 286.5 211.5Q285 204 283.5 197.0Q282 190 280.0 182.5Q278 175 276.5 167.5Q275 160 273.5 153.0Q272 146 270.5 138.5Q269 131 267.0 123.5Q265 116 263.5 108.5Q262 101 260.5 94.0Q259 87 257.5 79.5Q256 72 254.5 64.5Q253 57 251 50L243 9Q223 -88 185.5 -138.5Q148 -189 98.0 -207.0Q48 -225 -10 -225Q-43 -225 -69.5 -219.0Q-96 -213 -114.0 -202.5Q-132 -192 -142.0 -178.0Q-152 -164 -152 -147Q-152 -125 -139.0 -112.0Q-126 -99 -104 -99Q-85 -99 -73.5 -113.0Q-62 -127 -51.0 -145.5Q-40 -164 -24.5 -178.0Q-9 -192 17 -192Q57 -192 82.0 -175.5Q107 -159 124.0 -120.0Q141 -81 154 -16L168 50Q170 57 171.5 64.5Q173 72 174.5 79.5Q176 87 177.5 94.0Q179 101 180.5 108.5Q182 116 183.5 123.5Q185 131 186.5 138.5Q188 146 189.5 153.0Q191 160 192.5 167.5Q194 175 195.5 182.5Q197 190 198.5 197.0Q200 204 201.5 211.5Q203 219 204.5 226.5Q206 234 207.5 241.5Q209 249 210.5 256.0Q212 263 213.5 270.5Q215 278 216.5 285.5Q218 293 220 300ZM30 -10Q7 -10 -9.0 4.5Q-25 19 -25 48Q-25 81 -8.0 96.0Q9 111 28 111Q44 111 53.5 102.0Q63 93 67.5 83.5Q72 74 73 74Q88 74 107.5 98.5Q127 123 147.0 160.0Q167 197 185.0 235.5Q203 274 214.5 302.5Q226 331 229 338L208 224Q199 206 186.0 177.5Q173 149 156.5 116.5Q140 84 120.5 55.0Q101 26 78.5 8.0Q56 -10 30 -10Z"/>
</g>
<g><title>U+F2A15 · hip with ascender</title>
<path d="M30 1100H450" stroke="#d8dacf"/>
<text x="30" y="1124" fill="#242c27" font-family="Segoe UI,sans-serif" font-size="14">U+F2A15 · hip with ascender</text>
<text x="55" y="1147" fill="#687266" font-family="Segoe UI,sans-serif" font-size="12">Before</text>
<path fill="#242c27" transform="translate(55 1270) scale(0.1 -0.1)" d="M221 300 286 608Q286 608 287.5 618.0Q289 628 289 640Q289 650 283.5 660.0Q278 670 258 670Q245 670 234.5 669.0Q224 668 224 668V694L362 705H384L303 300Q303 296 302.0 292.0Q301 288 300.5 284.0Q300 280 299.0 276.0Q298 272 297.5 268.0Q297 264 296.0 260.0Q295 256 294.5 252.0Q294 248 293.0 244.0Q292 240 291.5 236.0Q291 232 290.0 228.0Q289 224 288 220L268 125Q265 112 263.5 101.0Q262 90 262 85Q262 71 268.0 65.5Q274 60 284 60Q308 60 327.5 79.0Q347 98 358 112L379 97Q369 83 356.5 65.0Q344 47 327.5 29.5Q311 12 290.0 1.0Q269 -10 242 -10Q205 -10 190.5 8.5Q176 27 176 49Q176 57 178.5 70.5Q181 84 189.0 116.5Q197 149 213 214H201L202 220Q203 223 204.0 226.5Q205 230 205.5 233.5Q206 237 207.0 240.0Q208 243 208.5 246.5Q209 250 210.0 253.5Q211 257 212.0 260.0Q213 263 213.5 266.5Q214 270 215.0 273.5Q216 277 217.0 280.0Q218 283 218.5 286.5Q219 290 220.0 293.5Q221 297 221 300ZM30 -10Q7 -10 -9.0 4.5Q-25 19 -25 48Q-25 81 -8.0 96.0Q9 111 28 111Q44 111 53.5 102.0Q63 93 67.5 83.5Q72 74 73 74Q88 74 107.5 98.5Q127 123 147.0 160.0Q167 197 185.0 235.5Q203 274 214.5 302.5Q226 331 229 338L208 224Q199 206 186.0 177.5Q173 149 156.5 116.5Q140 84 120.5 55.0Q101 26 78.5 8.0Q56 -10 30 -10Z"/>
<path fill="#242c27" transform="translate(55 1325) scale(0.024 -0.024)" d="M221 300 286 608Q286 608 287.5 618.0Q289 628 289 640Q289 650 283.5 660.0Q278 670 258 670Q245 670 234.5 669.0Q224 668 224 668V694L362 705H384L303 300Q303 296 302.0 292.0Q301 288 300.5 284.0Q300 280 299.0 276.0Q298 272 297.5 268.0Q297 264 296.0 260.0Q295 256 294.5 252.0Q294 248 293.0 244.0Q292 240 291.5 236.0Q291 232 290.0 228.0Q289 224 288 220L268 125Q265 112 263.5 101.0Q262 90 262 85Q262 71 268.0 65.5Q274 60 284 60Q308 60 327.5 79.0Q347 98 358 112L379 97Q369 83 356.5 65.0Q344 47 327.5 29.5Q311 12 290.0 1.0Q269 -10 242 -10Q205 -10 190.5 8.5Q176 27 176 49Q176 57 178.5 70.5Q181 84 189.0 116.5Q197 149 213 214H201L202 220Q203 223 204.0 226.5Q205 230 205.5 233.5Q206 237 207.0 240.0Q208 243 208.5 246.5Q209 250 210.0 253.5Q211 257 212.0 260.0Q213 263 213.5 266.5Q214 270 215.0 273.5Q216 277 217.0 280.0Q218 283 218.5 286.5Q219 290 220.0 293.5Q221 297 221 300ZM30 -10Q7 -10 -9.0 4.5Q-25 19 -25 48Q-25 81 -8.0 96.0Q9 111 28 111Q44 111 53.5 102.0Q63 93 67.5 83.5Q72 74 73 74Q88 74 107.5 98.5Q127 123 147.0 160.0Q167 197 185.0 235.5Q203 274 214.5 302.5Q226 331 229 338L208 224Q199 206 186.0 177.5Q173 149 156.5 116.5Q140 84 120.5 55.0Q101 26 78.5 8.0Q56 -10 30 -10Z"/>
<text x="265" y="1147" fill="#687266" font-family="Segoe UI,sans-serif" font-size="12">After</text>
<path fill="#242c27" transform="translate(265 1270) scale(0.1 -0.1)" d="M221 300 289 608Q289 608 290.5 618.0Q292 628 292 640Q293 650 287.5 660.0Q282 670 262 670Q249 670 238.5 669.0Q228 668 228 668V694L366 705H388L303 300Q303 296 302.0 292.5Q301 289 300.5 285.5Q300 282 299.0 278.5Q298 275 297.5 271.0Q297 267 296.5 263.5Q296 260 295.5 256.5Q295 253 294.0 249.0Q293 245 292.5 241.5Q292 238 291.0 234.5Q290 231 289.5 227.5Q289 224 288 220L268 125Q265 112 263.5 101.0Q262 90 262 85Q262 71 268.0 65.5Q274 60 284 60Q308 60 327.5 79.0Q347 98 358 112L379 97Q369 83 356.5 65.0Q344 47 327.5 29.5Q311 12 290.0 1.0Q269 -10 242 -10Q205 -10 190.5 8.5Q176 27 176 49Q176 57 178.5 70.5Q181 84 189.0 116.5Q197 149 213 214H201L202 220Q203 224 204.0 227.5Q205 231 205.5 234.5Q206 238 207.0 241.5Q208 245 209.0 249.0Q210 253 211.0 256.5Q212 260 213.0 263.5Q214 267 214.5 271.0Q215 275 216.0 278.5Q217 282 218.0 285.5Q219 289 220.0 292.5Q221 296 221 300ZM30 -10Q7 -10 -9.0 4.5Q-25 19 -25 48Q-25 81 -8.0 96.0Q9 111 28 111Q44 111 53.5 102.0Q63 93 67.5 83.5Q72 74 73 74Q88 74 107.5 98.5Q127 123 147.0 160.0Q167 197 185.0 235.5Q203 274 214.5 302.5Q226 331 229 338L208 224Q199 206 186.0 177.5Q173 149 156.5 116.5Q140 84 120.5 55.0Q101 26 78.5 8.0Q56 -10 30 -10Z"/>
<path fill="#242c27" transform="translate(265 1325) scale(0.024 -0.024)" d="M221 300 289 608Q289 608 290.5 618.0Q292 628 292 640Q293 650 287.5 660.0Q282 670 262 670Q249 670 238.5 669.0Q228 668 228 668V694L366 705H388L303 300Q303 296 302.0 292.5Q301 289 300.5 285.5Q300 282 299.0 278.5Q298 275 297.5 271.0Q297 267 296.5 263.5Q296 260 295.5 256.5Q295 253 294.0 249.0Q293 245 292.5 241.5Q292 238 291.0 234.5Q290 231 289.5 227.5Q289 224 288 220L268 125Q265 112 263.5 101.0Q262 90 262 85Q262 71 268.0 65.5Q274 60 284 60Q308 60 327.5 79.0Q347 98 358 112L379 97Q369 83 356.5 65.0Q344 47 327.5 29.5Q311 12 290.0 1.0Q269 -10 242 -10Q205 -10 190.5 8.5Q176 27 176 49Q176 57 178.5 70.5Q181 84 189.0 116.5Q197 149 213 214H201L202 220Q203 224 204.0 227.5Q205 231 205.5 234.5Q206 238 207.0 241.5Q208 245 209.0 249.0Q210 253 211.0 256.5Q212 260 213.0 263.5Q214 267 214.5 271.0Q215 275 216.0 278.5Q217 282 218.0 285.5Q219 289 220.0 292.5Q221 296 221 300ZM30 -10Q7 -10 -9.0 4.5Q-25 19 -25 48Q-25 81 -8.0 96.0Q9 111 28 111Q44 111 53.5 102.0Q63 93 67.5 83.5Q72 74 73 74Q88 74 107.5 98.5Q127 123 147.0 160.0Q167 197 185.0 235.5Q203 274 214.5 302.5Q226 331 229 338L208 224Q199 206 186.0 177.5Q173 149 156.5 116.5Q140 84 120.5 55.0Q101 26 78.5 8.0Q56 -10 30 -10Z"/>
</g>
<g><title>U+F2A16 · hip with long stem</title>
<path d="M470 1100H890" stroke="#d8dacf"/>
<text x="470" y="1124" fill="#242c27" font-family="Segoe UI,sans-serif" font-size="14">U+F2A16 · hip with long stem</text>
<text x="495" y="1147" fill="#687266" font-family="Segoe UI,sans-serif" font-size="12">Before</text>
<path fill="#242c27" transform="translate(495 1270) scale(0.1 -0.1)" d="M221 300 286 608Q286 608 287.5 618.0Q289 628 289 640Q289 650 283.5 660.0Q278 670 258 670Q245 670 234.5 669.0Q224 668 224 668V694L362 705H384L303 300Q302 293 300.5 285.5Q299 278 297.5 270.5Q296 263 294.5 255.5Q293 248 291.0 240.5Q289 233 287.5 225.5Q286 218 284.5 210.5Q283 203 281.5 195.5Q280 188 278.0 180.5Q276 173 274.5 165.5Q273 158 272 150L219 -101Q218 -108 216.5 -120.0Q215 -132 215 -143Q215 -160 235.5 -176.5Q256 -193 316 -193L309 -220H113L189 150Q191 158 193.0 166.5Q195 175 196.5 183.5Q198 192 200.0 200.0Q202 208 203.5 216.5Q205 225 207.0 233.5Q209 242 211.0 250.0Q213 258 214.5 266.5Q216 275 218.0 283.5Q220 292 221 300ZM30 -10Q7 -10 -9.0 4.5Q-25 19 -25 48Q-25 81 -8.0 96.0Q9 111 28 111Q44 111 53.5 102.0Q63 93 67.5 83.5Q72 74 73 74Q88 74 107.5 98.5Q127 123 147.0 160.0Q167 197 185.0 235.5Q203 274 214.5 302.5Q226 331 229 338L208 224Q199 206 186.0 177.5Q173 149 156.5 116.5Q140 84 120.5 55.0Q101 26 78.5 8.0Q56 -10 30 -10Z"/>
<path fill="#242c27" transform="translate(495 1325) scale(0.024 -0.024)" d="M221 300 286 608Q286 608 287.5 618.0Q289 628 289 640Q289 650 283.5 660.0Q278 670 258 670Q245 670 234.5 669.0Q224 668 224 668V694L362 705H384L303 300Q302 293 300.5 285.5Q299 278 297.5 270.5Q296 263 294.5 255.5Q293 248 291.0 240.5Q289 233 287.5 225.5Q286 218 284.5 210.5Q283 203 281.5 195.5Q280 188 278.0 180.5Q276 173 274.5 165.5Q273 158 272 150L219 -101Q218 -108 216.5 -120.0Q215 -132 215 -143Q215 -160 235.5 -176.5Q256 -193 316 -193L309 -220H113L189 150Q191 158 193.0 166.5Q195 175 196.5 183.5Q198 192 200.0 200.0Q202 208 203.5 216.5Q205 225 207.0 233.5Q209 242 211.0 250.0Q213 258 214.5 266.5Q216 275 218.0 283.5Q220 292 221 300ZM30 -10Q7 -10 -9.0 4.5Q-25 19 -25 48Q-25 81 -8.0 96.0Q9 111 28 111Q44 111 53.5 102.0Q63 93 67.5 83.5Q72 74 73 74Q88 74 107.5 98.5Q127 123 147.0 160.0Q167 197 185.0 235.5Q203 274 214.5 302.5Q226 331 229 338L208 224Q199 206 186.0 177.5Q173 149 156.5 116.5Q140 84 120.5 55.0Q101 26 78.5 8.0Q56 -10 30 -10Z"/>
<text x="705" y="1147" fill="#687266" font-family="Segoe UI,sans-serif" font-size="12">After</text>
<path fill="#242c27" transform="translate(705 1270) scale(0.1 -0.1)" d="M221 300 287 608Q287 608 288.5 618.0Q290 628 290 640Q290 650 284.5 660.0Q279 670 259 670Q246 670 235.5 669.0Q225 668 225 668V694L363 705H385L303 300Q300 285 297.0 270.0Q294 255 291.0 240.0Q288 225 285.0 210.0Q282 195 279.0 180.0Q276 165 272 150L220 -101Q219 -108 217.5 -120.0Q216 -132 216 -143Q216 -160 236.5 -176.5Q257 -193 317 -193L310 -220H114L190 150Q193 165 196.0 180.0Q199 195 202.5 210.0Q206 225 209.0 240.0Q212 255 215.0 270.0Q218 285 221 300ZM30 -10Q7 -10 -9.0 4.5Q-25 19 -25 48Q-25 81 -8.0 96.0Q9 111 28 111Q44 111 53.5 102.0Q63 93 67.5 83.5Q72 74 73 74Q88 74 107.5 98.5Q127 123 147.0 160.0Q167 197 185.0 235.5Q203 274 214.5 302.5Q226 331 229 338L208 224Q199 206 186.0 177.5Q173 149 156.5 116.5Q140 84 120.5 55.0Q101 26 78.5 8.0Q56 -10 30 -10Z"/>
<path fill="#242c27" transform="translate(705 1325) scale(0.024 -0.024)" d="M221 300 287 608Q287 608 288.5 618.0Q290 628 290 640Q290 650 284.5 660.0Q279 670 259 670Q246 670 235.5 669.0Q225 668 225 668V694L363 705H385L303 300Q300 285 297.0 270.0Q294 255 291.0 240.0Q288 225 285.0 210.0Q282 195 279.0 180.0Q276 165 272 150L220 -101Q219 -108 217.5 -120.0Q216 -132 216 -143Q216 -160 236.5 -176.5Q257 -193 317 -193L310 -220H114L190 150Q193 165 196.0 180.0Q199 195 202.5 210.0Q206 225 209.0 240.0Q212 255 215.0 270.0Q218 285 221 300ZM30 -10Q7 -10 -9.0 4.5Q-25 19 -25 48Q-25 81 -8.0 96.0Q9 111 28 111Q44 111 53.5 102.0Q63 93 67.5 83.5Q72 74 73 74Q88 74 107.5 98.5Q127 123 147.0 160.0Q167 197 185.0 235.5Q203 274 214.5 302.5Q226 331 229 338L208 224Q199 206 186.0 177.5Q173 149 156.5 116.5Q140 84 120.5 55.0Q101 26 78.5 8.0Q56 -10 30 -10Z"/>
</g>
<g><title>U+F2A17 · hip with long tail</title>
<path d="M910 1100H1330" stroke="#d8dacf"/>
<text x="910" y="1124" fill="#242c27" font-family="Segoe UI,sans-serif" font-size="14">U+F2A17 · hip with long tail</text>
<text x="935" y="1147" fill="#687266" font-family="Segoe UI,sans-serif" font-size="12">Before</text>
<path fill="#242c27" transform="translate(935 1270) scale(0.1 -0.1)" d="M221 300 286 608Q286 608 287.5 618.0Q289 628 289 640Q289 650 283.5 660.0Q278 670 258 670Q245 670 234.5 669.0Q224 668 224 668V694L362 705H384L303 300Q302 293 300.5 285.5Q299 278 297.5 270.5Q296 263 294.5 256.0Q293 249 291.5 241.5Q290 234 288.5 226.5Q287 219 285.5 211.5Q284 204 282.5 197.0Q281 190 279.5 182.5Q278 175 276.0 167.5Q274 160 272.5 153.0Q271 146 269.5 138.5Q268 131 266.5 123.5Q265 116 263.5 108.5Q262 101 260.5 94.0Q259 87 257.5 79.5Q256 72 254.5 64.5Q253 57 251 50L242 9Q222 -88 184.5 -138.5Q147 -189 97.0 -207.0Q47 -225 -11 -225Q-44 -225 -70.5 -219.0Q-97 -213 -115.0 -202.5Q-133 -192 -143.0 -178.0Q-153 -164 -153 -147Q-153 -125 -140.0 -112.0Q-127 -99 -105 -99Q-86 -99 -74.5 -113.0Q-63 -127 -52.0 -145.5Q-41 -164 -25.5 -178.0Q-10 -192 16 -192Q56 -192 81.0 -175.5Q106 -159 123.0 -120.0Q140 -81 153 -16L168 50Q169 59 171.0 68.0Q173 77 175.0 86.0Q177 95 179.0 103.5Q181 112 183.0 121.0Q185 130 187.0 139.0Q189 148 191.0 157.0Q193 166 195.0 175.0Q197 184 198.5 193.0Q200 202 202.0 211.0Q204 220 206.0 229.0Q208 238 210.0 246.5Q212 255 214.0 264.0Q216 273 217.5 282.0Q219 291 221 300ZM30 -10Q7 -10 -9.0 4.5Q-25 19 -25 48Q-25 81 -8.0 96.0Q9 111 28 111Q44 111 53.5 102.0Q63 93 67.5 83.5Q72 74 73 74Q88 74 107.5 98.5Q127 123 147.0 160.0Q167 197 185.0 235.5Q203 274 214.5 302.5Q226 331 229 338L208 224Q199 206 186.0 177.5Q173 149 156.5 116.5Q140 84 120.5 55.0Q101 26 78.5 8.0Q56 -10 30 -10Z"/>
<path fill="#242c27" transform="translate(935 1325) scale(0.024 -0.024)" d="M221 300 286 608Q286 608 287.5 618.0Q289 628 289 640Q289 650 283.5 660.0Q278 670 258 670Q245 670 234.5 669.0Q224 668 224 668V694L362 705H384L303 300Q302 293 300.5 285.5Q299 278 297.5 270.5Q296 263 294.5 256.0Q293 249 291.5 241.5Q290 234 288.5 226.5Q287 219 285.5 211.5Q284 204 282.5 197.0Q281 190 279.5 182.5Q278 175 276.0 167.5Q274 160 272.5 153.0Q271 146 269.5 138.5Q268 131 266.5 123.5Q265 116 263.5 108.5Q262 101 260.5 94.0Q259 87 257.5 79.5Q256 72 254.5 64.5Q253 57 251 50L242 9Q222 -88 184.5 -138.5Q147 -189 97.0 -207.0Q47 -225 -11 -225Q-44 -225 -70.5 -219.0Q-97 -213 -115.0 -202.5Q-133 -192 -143.0 -178.0Q-153 -164 -153 -147Q-153 -125 -140.0 -112.0Q-127 -99 -105 -99Q-86 -99 -74.5 -113.0Q-63 -127 -52.0 -145.5Q-41 -164 -25.5 -178.0Q-10 -192 16 -192Q56 -192 81.0 -175.5Q106 -159 123.0 -120.0Q140 -81 153 -16L168 50Q169 59 171.0 68.0Q173 77 175.0 86.0Q177 95 179.0 103.5Q181 112 183.0 121.0Q185 130 187.0 139.0Q189 148 191.0 157.0Q193 166 195.0 175.0Q197 184 198.5 193.0Q200 202 202.0 211.0Q204 220 206.0 229.0Q208 238 210.0 246.5Q212 255 214.0 264.0Q216 273 217.5 282.0Q219 291 221 300ZM30 -10Q7 -10 -9.0 4.5Q-25 19 -25 48Q-25 81 -8.0 96.0Q9 111 28 111Q44 111 53.5 102.0Q63 93 67.5 83.5Q72 74 73 74Q88 74 107.5 98.5Q127 123 147.0 160.0Q167 197 185.0 235.5Q203 274 214.5 302.5Q226 331 229 338L208 224Q199 206 186.0 177.5Q173 149 156.5 116.5Q140 84 120.5 55.0Q101 26 78.5 8.0Q56 -10 30 -10Z"/>
<text x="1145" y="1147" fill="#687266" font-family="Segoe UI,sans-serif" font-size="12">After</text>
<path fill="#242c27" transform="translate(1145 1270) scale(0.1 -0.1)" d="M221 300 288 608Q288 608 289.5 618.0Q291 628 291 640Q291 650 285.5 660.0Q280 670 260 670Q247 670 236.5 669.0Q226 668 226 668L227 694L365 705H387L303 300Q302 292 300.5 284.5Q299 277 297.0 269.0Q295 261 293.5 253.0Q292 245 290.5 237.5Q289 230 287.5 222.0Q286 214 284.0 206.0Q282 198 280.5 190.5Q279 183 277.5 175.0Q276 167 274.5 159.5Q273 152 271.0 144.0Q269 136 267.5 128.0Q266 120 264.5 112.5Q263 105 261.5 97.0Q260 89 258.0 81.0Q256 73 254.5 65.5Q253 58 251 50L243 9Q223 -88 185.5 -138.5Q148 -189 98.0 -207.0Q48 -225 -10 -225Q-43 -225 -69.5 -219.0Q-96 -213 -114.0 -202.5Q-132 -192 -142.0 -178.0Q-152 -164 -152 -147Q-152 -125 -139.0 -112.0Q-126 -99 -104 -99Q-85 -99 -73.5 -113.0Q-62 -127 -51.0 -145.5Q-40 -164 -24.5 -178.0Q-9 -192 17 -192Q57 -192 82.0 -175.5Q107 -159 124.0 -120.0Q141 -81 154 -16L168 50Q170 58 171.5 65.5Q173 73 174.5 81.0Q176 89 178.0 97.0Q180 105 181.5 112.5Q183 120 184.5 128.0Q186 136 188.0 144.0Q190 152 191.5 159.5Q193 167 194.5 175.0Q196 183 198.0 190.5Q200 198 201.5 206.0Q203 214 204.5 222.0Q206 230 208.0 237.5Q210 245 211.5 253.0Q213 261 214.5 269.0Q216 277 218.0 284.5Q220 292 221 300ZM30 -10Q7 -10 -9.0 4.5Q-25 19 -25 48Q-25 81 -8.0 96.0Q9 111 28 111Q44 111 53.5 102.0Q63 93 67.5 83.5Q72 74 73 74Q88 74 107.5 98.5Q127 123 147.0 160.0Q167 197 185.0 235.5Q203 274 214.5 302.5Q226 331 229 338L208 224Q199 206 186.0 177.5Q173 149 156.5 116.5Q140 84 120.5 55.0Q101 26 78.5 8.0Q56 -10 30 -10Z"/>
<path fill="#242c27" transform="translate(1145 1325) scale(0.024 -0.024)" d="M221 300 288 608Q288 608 289.5 618.0Q291 628 291 640Q291 650 285.5 660.0Q280 670 260 670Q247 670 236.5 669.0Q226 668 226 668L227 694L365 705H387L303 300Q302 292 300.5 284.5Q299 277 297.0 269.0Q295 261 293.5 253.0Q292 245 290.5 237.5Q289 230 287.5 222.0Q286 214 284.0 206.0Q282 198 280.5 190.5Q279 183 277.5 175.0Q276 167 274.5 159.5Q273 152 271.0 144.0Q269 136 267.5 128.0Q266 120 264.5 112.5Q263 105 261.5 97.0Q260 89 258.0 81.0Q256 73 254.5 65.5Q253 58 251 50L243 9Q223 -88 185.5 -138.5Q148 -189 98.0 -207.0Q48 -225 -10 -225Q-43 -225 -69.5 -219.0Q-96 -213 -114.0 -202.5Q-132 -192 -142.0 -178.0Q-152 -164 -152 -147Q-152 -125 -139.0 -112.0Q-126 -99 -104 -99Q-85 -99 -73.5 -113.0Q-62 -127 -51.0 -145.5Q-40 -164 -24.5 -178.0Q-9 -192 17 -192Q57 -192 82.0 -175.5Q107 -159 124.0 -120.0Q141 -81 154 -16L168 50Q170 58 171.5 65.5Q173 73 174.5 81.0Q176 89 178.0 97.0Q180 105 181.5 112.5Q183 120 184.5 128.0Q186 136 188.0 144.0Q190 152 191.5 159.5Q193 167 194.5 175.0Q196 183 198.0 190.5Q200 198 201.5 206.0Q203 214 204.5 222.0Q206 230 208.0 237.5Q210 245 211.5 253.0Q213 261 214.5 269.0Q216 277 218.0 284.5Q220 292 221 300ZM30 -10Q7 -10 -9.0 4.5Q-25 19 -25 48Q-25 81 -8.0 96.0Q9 111 28 111Q44 111 53.5 102.0Q63 93 67.5 83.5Q72 74 73 74Q88 74 107.5 98.5Q127 123 147.0 160.0Q167 197 185.0 235.5Q203 274 214.5 302.5Q226 331 229 338L208 224Q199 206 186.0 177.5Q173 149 156.5 116.5Q140 84 120.5 55.0Q101 26 78.5 8.0Q56 -10 30 -10Z"/>
</g>
<text x="30" y="1370" fill="#687266" font-family="Segoe UI,sans-serif" font-size="14">15 constructions · geometry checks and visual review are recorded separately</text></svg>
